M48
;DRILL file {KiCad 4.0.2-4+6225~38~ubuntu15.10.1-stable} date Thu 02 Jun 2016 10:50:30 PM PDT
;FORMAT={-:-/ absolute / inch / decimal}
FMAT,2
INCH,TZ
T1C0.016
T2C0.024
T3C0.024
T4C0.031
T5C0.032
T6C0.032
T7C0.039
T8C0.040
%
G90
G05
M72
T1
X3.2Y-4.
X3.24Y-4.5
X3.26Y-3.28
X3.5Y-3.7
X3.7Y-3.2
X3.7Y-4.5
X3.8Y-3.4
X3.8Y-4.4
X3.9Y-4.
X4.08Y-3.94
X4.1Y-3.2
X4.24Y-3.4
X4.3Y-4.5
X4.44Y-3.6
X4.48Y-3.8
X4.5Y-3.2
X4.8Y-3.2
X4.8Y-3.8
X4.8Y-4.5
X4.99Y-3.63
X5.Y-3.68
X5.08Y-3.5
X5.08Y-3.6
X5.1Y-3.2
X5.26Y-3.68
X5.3Y-4.5
X5.34Y-3.54
X5.4Y-3.36
X5.43Y-3.77
X5.45Y-3.91
X5.4828Y-3.9072
X5.4857Y-3.8443
X5.49Y-4.36
X5.49Y-4.41
X5.51Y-3.47
X5.54Y-3.54
X5.6Y-3.6
X5.64Y-3.56
X5.66Y-4.34
X5.7Y-3.2
X5.7Y-3.31
X5.7143Y-3.55
X5.75Y-3.62
X5.83Y-3.59
X5.86Y-4.34
X5.98Y-3.5
X5.98Y-4.34
X6.Y-3.2
X6.Y-4.2
X6.16Y-4.34
X6.32Y-4.18
X6.46Y-4.5
X6.5Y-3.4
X6.5Y-3.7
T2
X5.08Y-4.2605
X5.08Y-4.3195
T3
X4.44Y-4.04
X5.45Y-4.06
X5.58Y-4.47
T5
X5.11Y-3.8739
X5.11Y-4.0661
T6
X6.09Y-3.18
X6.09Y-3.38
X6.39Y-3.18
X6.39Y-3.38
T7
X4.16Y-4.16
X4.16Y-4.26
X4.16Y-4.36
X4.62Y-3.9
X4.62Y-4.
X6.48Y-3.83
X6.48Y-3.93
T8
X4.62Y-3.19
X4.62Y-3.29
X4.62Y-3.39
X4.62Y-3.49
X4.62Y-3.59
X4.62Y-3.69
X5.23Y-3.19
X5.33Y-3.19
X5.51Y-3.19
X5.61Y-3.19
X5.76Y-4.58
X5.86Y-4.58
X6.06Y-4.58
X6.16Y-4.58
X6.24Y-3.53
X6.24Y-3.63
X6.24Y-3.73
X6.24Y-3.83
X6.24Y-3.93
X6.24Y-4.03
X6.34Y-4.38
X6.34Y-4.48
X6.34Y-4.58
T4
X3.1791Y-3.515G85X3.1791Y-3.645
G05
X4.25Y-3.5505G85X4.25Y-3.6095
G05
T7
X3.3879Y-4.2406G85X3.3879Y-4.3194
G05
X3.4667Y-4.465G85X3.5454Y-4.465
G05
X3.6241Y-4.2406G85X3.6241Y-4.3194
G05
T0
M30
