G04 #@! TF.FileFunction,Soldermask,Top*
%FSLAX46Y46*%
G04 Gerber Fmt 4.6, Leading zero omitted, Abs format (unit mm)*
G04 Created by KiCad (PCBNEW 4.0.2-4+6225~38~ubuntu15.10.1-stable) date Thu 02 Jun 2016 10:57:07 PM PDT*
%MOMM*%
G01*
G04 APERTURE LIST*
%ADD10C,0.100000*%
%ADD11O,2.036000X5.336000*%
%ADD12O,2.036000X3.306000*%
%ADD13R,1.000000X1.250000*%
%ADD14R,3.250120X3.250120*%
%ADD15R,1.750000X1.650000*%
%ADD16C,1.650000*%
%ADD17R,1.350000X0.300000*%
%ADD18R,0.300000X1.350000*%
%ADD19R,1.782000X1.477200*%
%ADD20O,1.782000X1.477200*%
%ADD21C,1.251140*%
%ADD22R,1.250000X1.050000*%
%ADD23R,1.050000X1.250000*%
%ADD24R,1.782000X1.782000*%
%ADD25O,1.782000X1.782000*%
%ADD26O,2.249360X1.251140*%
%ADD27R,1.300000X0.350000*%
%ADD28C,0.750760*%
%ADD29C,1.147000*%
G04 APERTURE END LIST*
D10*
D11*
X80750000Y-90932000D03*
D12*
X107950000Y-90932000D03*
D13*
X105664000Y-116820000D03*
X105664000Y-114320000D03*
X105664000Y-99588000D03*
X105664000Y-102088000D03*
X144780000Y-88118000D03*
X144780000Y-85618000D03*
X134366000Y-97048000D03*
X134366000Y-99548000D03*
X134366000Y-104374000D03*
X134366000Y-101874000D03*
X136652000Y-98278000D03*
X136652000Y-95778000D03*
D14*
X92052140Y-108712000D03*
X86052660Y-108712000D03*
X89052400Y-113411000D03*
D15*
X164592000Y-99822000D03*
D16*
X164592000Y-97282000D03*
D15*
X117348000Y-101600000D03*
D16*
X117348000Y-99060000D03*
D17*
X141292000Y-95244000D03*
X141292000Y-96044000D03*
X141292000Y-96844000D03*
X141292000Y-97644000D03*
X141292000Y-98444000D03*
X141292000Y-99244000D03*
X141292000Y-100044000D03*
X141292000Y-100844000D03*
D18*
X142742000Y-102294000D03*
X143542000Y-102294000D03*
X144342000Y-102294000D03*
X145142000Y-102294000D03*
X145942000Y-102294000D03*
X146742000Y-102294000D03*
X147542000Y-102294000D03*
X148342000Y-102294000D03*
D17*
X149792000Y-100844000D03*
X149792000Y-100044000D03*
X149792000Y-99244000D03*
X149792000Y-98444000D03*
X149792000Y-97644000D03*
X149792000Y-96844000D03*
X149792000Y-96044000D03*
X149792000Y-95244000D03*
D18*
X148342000Y-93794000D03*
X147542000Y-93794000D03*
X146742000Y-93794000D03*
X145942000Y-93794000D03*
X145142000Y-93794000D03*
X144342000Y-93794000D03*
X143542000Y-93794000D03*
X142742000Y-93794000D03*
D19*
X161036000Y-111252000D03*
D20*
X161036000Y-113792000D03*
X161036000Y-116332000D03*
D21*
X129794000Y-98397060D03*
X129794000Y-103278940D03*
D22*
X109140000Y-99060000D03*
X111840000Y-99060000D03*
D23*
X164592000Y-106252000D03*
X164592000Y-103552000D03*
X142494000Y-88218000D03*
X142494000Y-85518000D03*
X149098000Y-85518000D03*
X149098000Y-88218000D03*
X147066000Y-85518000D03*
X147066000Y-88218000D03*
X139954000Y-86694000D03*
X139954000Y-83994000D03*
X132842000Y-86694000D03*
X132842000Y-83994000D03*
X146304000Y-110664000D03*
X146304000Y-113364000D03*
X153924000Y-110664000D03*
X153924000Y-113364000D03*
D24*
X139954000Y-81026000D03*
D25*
X142494000Y-81026000D03*
D24*
X132842000Y-81026000D03*
D25*
X135382000Y-81026000D03*
D24*
X146304000Y-116332000D03*
D25*
X148844000Y-116332000D03*
D24*
X153924000Y-116332000D03*
D25*
X156464000Y-116332000D03*
D26*
X105664000Y-108204000D03*
X105664000Y-110744000D03*
X105664000Y-105664000D03*
D27*
X132682000Y-108331000D03*
X132682000Y-109601000D03*
X132682000Y-110871000D03*
X132682000Y-112141000D03*
X138082000Y-112141000D03*
X138082000Y-110871000D03*
X138082000Y-109601000D03*
X138082000Y-108331000D03*
D19*
X117348000Y-93726000D03*
D20*
X117348000Y-91186000D03*
X117348000Y-88646000D03*
X117348000Y-86106000D03*
X117348000Y-83566000D03*
X117348000Y-81026000D03*
D19*
X158496000Y-102362000D03*
D20*
X158496000Y-99822000D03*
X158496000Y-97282000D03*
X158496000Y-94742000D03*
X158496000Y-92202000D03*
X158496000Y-89662000D03*
D28*
X129420845Y-110104145D02*
X129067023Y-109750323D01*
X129067023Y-108181677D02*
X129420845Y-107827855D01*
D29*
X154686000Y-85852000D03*
X154686000Y-80772000D03*
X162306000Y-85852000D03*
X162306000Y-80772000D03*
M02*
