G04 #@! TF.FileFunction,Copper,L1,Top,Signal*
%FSLAX46Y46*%
G04 Gerber Fmt 4.6, Leading zero omitted, Abs format (unit mm)*
G04 Created by KiCad (PCBNEW 4.0.2-4+6225~38~ubuntu15.10.1-stable) date Thu 02 Jun 2016 10:57:07 PM PDT*
%MOMM*%
G01*
G04 APERTURE LIST*
%ADD10C,0.100000*%
%ADD11O,2.286000X5.586000*%
%ADD12O,2.286000X3.556000*%
%ADD13R,1.250000X1.500000*%
%ADD14R,3.500120X3.500120*%
%ADD15R,2.000000X1.900000*%
%ADD16C,1.900000*%
%ADD17R,1.600000X0.550000*%
%ADD18R,0.550000X1.600000*%
%ADD19R,2.032000X1.727200*%
%ADD20O,2.032000X1.727200*%
%ADD21C,1.501140*%
%ADD22R,1.500000X1.300000*%
%ADD23R,1.300000X1.500000*%
%ADD24R,2.032000X2.032000*%
%ADD25O,2.032000X2.032000*%
%ADD26O,2.499360X1.501140*%
%ADD27R,1.550000X0.600000*%
%ADD28C,1.000760*%
%ADD29C,1.397000*%
%ADD30C,0.600000*%
%ADD31C,1.000000*%
%ADD32C,0.250000*%
%ADD33C,0.500000*%
%ADD34C,0.750000*%
%ADD35C,0.254000*%
G04 APERTURE END LIST*
D10*
D11*
X80750000Y-90932000D03*
D12*
X107950000Y-90932000D03*
D13*
X105664000Y-116820000D03*
X105664000Y-114320000D03*
X105664000Y-99588000D03*
X105664000Y-102088000D03*
X144780000Y-88118000D03*
X144780000Y-85618000D03*
X134366000Y-97048000D03*
X134366000Y-99548000D03*
X134366000Y-104374000D03*
X134366000Y-101874000D03*
X136652000Y-98278000D03*
X136652000Y-95778000D03*
D14*
X92052140Y-108712000D03*
X86052660Y-108712000D03*
X89052400Y-113411000D03*
D15*
X164592000Y-99822000D03*
D16*
X164592000Y-97282000D03*
D15*
X117348000Y-101600000D03*
D16*
X117348000Y-99060000D03*
D17*
X141292000Y-95244000D03*
X141292000Y-96044000D03*
X141292000Y-96844000D03*
X141292000Y-97644000D03*
X141292000Y-98444000D03*
X141292000Y-99244000D03*
X141292000Y-100044000D03*
X141292000Y-100844000D03*
D18*
X142742000Y-102294000D03*
X143542000Y-102294000D03*
X144342000Y-102294000D03*
X145142000Y-102294000D03*
X145942000Y-102294000D03*
X146742000Y-102294000D03*
X147542000Y-102294000D03*
X148342000Y-102294000D03*
D17*
X149792000Y-100844000D03*
X149792000Y-100044000D03*
X149792000Y-99244000D03*
X149792000Y-98444000D03*
X149792000Y-97644000D03*
X149792000Y-96844000D03*
X149792000Y-96044000D03*
X149792000Y-95244000D03*
D18*
X148342000Y-93794000D03*
X147542000Y-93794000D03*
X146742000Y-93794000D03*
X145942000Y-93794000D03*
X145142000Y-93794000D03*
X144342000Y-93794000D03*
X143542000Y-93794000D03*
X142742000Y-93794000D03*
D19*
X161036000Y-111252000D03*
D20*
X161036000Y-113792000D03*
X161036000Y-116332000D03*
D21*
X129794000Y-98397060D03*
X129794000Y-103278940D03*
D22*
X109140000Y-99060000D03*
X111840000Y-99060000D03*
D23*
X164592000Y-106252000D03*
X164592000Y-103552000D03*
X142494000Y-88218000D03*
X142494000Y-85518000D03*
X149098000Y-85518000D03*
X149098000Y-88218000D03*
X147066000Y-85518000D03*
X147066000Y-88218000D03*
X139954000Y-86694000D03*
X139954000Y-83994000D03*
X132842000Y-86694000D03*
X132842000Y-83994000D03*
X146304000Y-110664000D03*
X146304000Y-113364000D03*
X153924000Y-110664000D03*
X153924000Y-113364000D03*
D24*
X139954000Y-81026000D03*
D25*
X142494000Y-81026000D03*
D24*
X132842000Y-81026000D03*
D25*
X135382000Y-81026000D03*
D24*
X146304000Y-116332000D03*
D25*
X148844000Y-116332000D03*
D24*
X153924000Y-116332000D03*
D25*
X156464000Y-116332000D03*
D26*
X105664000Y-108204000D03*
X105664000Y-110744000D03*
X105664000Y-105664000D03*
D27*
X132682000Y-108331000D03*
X132682000Y-109601000D03*
X132682000Y-110871000D03*
X132682000Y-112141000D03*
X138082000Y-112141000D03*
X138082000Y-110871000D03*
X138082000Y-109601000D03*
X138082000Y-108331000D03*
D19*
X117348000Y-93726000D03*
D20*
X117348000Y-91186000D03*
X117348000Y-88646000D03*
X117348000Y-86106000D03*
X117348000Y-83566000D03*
X117348000Y-81026000D03*
D19*
X158496000Y-102362000D03*
D20*
X158496000Y-99822000D03*
X158496000Y-97282000D03*
X158496000Y-94742000D03*
X158496000Y-92202000D03*
X158496000Y-89662000D03*
D28*
X129420845Y-110104145D02*
X129067023Y-109750323D01*
X129067023Y-108181677D02*
X129420845Y-107827855D01*
D29*
X154686000Y-85852000D03*
X154686000Y-80772000D03*
X162306000Y-85852000D03*
X162306000Y-80772000D03*
D30*
X137922000Y-95758000D03*
X151892000Y-88900000D03*
X137160000Y-85344000D03*
X139954000Y-88138000D03*
X165100000Y-86360000D03*
X165100000Y-93980000D03*
X144780000Y-81280000D03*
X152400000Y-81280000D03*
X96520000Y-111760000D03*
X93980000Y-81280000D03*
X96520000Y-86360000D03*
X88900000Y-93980000D03*
X104140000Y-81280000D03*
X114300000Y-81280000D03*
X99060000Y-101600000D03*
X81280000Y-101600000D03*
X103632000Y-100076000D03*
X107696000Y-86360000D03*
X112776000Y-91440000D03*
X113792000Y-96520000D03*
X121920000Y-96520000D03*
X127000000Y-93472000D03*
X133604000Y-93472000D03*
X140716000Y-89916000D03*
X135636000Y-89916000D03*
X129540000Y-81280000D03*
X121920000Y-81280000D03*
X143764000Y-110236000D03*
X148844000Y-110236000D03*
X151892000Y-110236000D03*
X152400000Y-106680000D03*
X156464000Y-110236000D03*
X134620000Y-114300000D03*
X121920000Y-114300000D03*
X109220000Y-114300000D03*
X164084000Y-114300000D03*
X160528000Y-106172000D03*
X93980000Y-114300000D03*
X82296000Y-114300000D03*
X82804000Y-83312000D03*
D31*
X112776000Y-102616000D03*
X141732000Y-113538000D03*
X138430000Y-103124000D03*
D30*
X138430000Y-99314000D03*
X139262000Y-99244000D03*
X139338000Y-97644000D03*
X126746000Y-92202000D03*
X144780000Y-84074000D03*
X148082000Y-91186000D03*
X139446000Y-112014000D03*
X139446000Y-110744000D03*
X146050000Y-91948000D03*
X129032000Y-88900000D03*
X143256000Y-90424000D03*
X129032000Y-91440000D03*
X142240000Y-91440000D03*
X145142000Y-90170000D03*
D32*
X80750000Y-90932000D02*
X80750000Y-101070000D01*
X80750000Y-101070000D02*
X81280000Y-101600000D01*
X89052400Y-113411000D02*
X89052400Y-111711740D01*
X89052400Y-111711740D02*
X92052140Y-108712000D01*
X151892000Y-88900000D02*
X154686000Y-86106000D01*
X154686000Y-85852000D02*
X154686000Y-86106000D01*
X165100000Y-86360000D02*
X165100000Y-93980000D01*
X162306000Y-80772000D02*
X160020000Y-80772000D01*
X160020000Y-80772000D02*
X157988000Y-82804000D01*
X157988000Y-82804000D02*
X157988000Y-84836000D01*
X157988000Y-84836000D02*
X156972000Y-85852000D01*
X156972000Y-85852000D02*
X154686000Y-85852000D01*
X147066000Y-85518000D02*
X147066000Y-83058000D01*
X147066000Y-83058000D02*
X145288000Y-81280000D01*
X145288000Y-81280000D02*
X144780000Y-81280000D01*
X152400000Y-81280000D02*
X144780000Y-81280000D01*
X105664000Y-108204000D02*
X99060000Y-108204000D01*
X96520000Y-105664000D02*
X96520000Y-106172000D01*
X99060000Y-108204000D02*
X96520000Y-105664000D01*
X103632000Y-100076000D02*
X100584000Y-100076000D01*
X100584000Y-100076000D02*
X99060000Y-101600000D01*
X93980000Y-114300000D02*
X96520000Y-111760000D01*
X96520000Y-104140000D02*
X96520000Y-106172000D01*
X96520000Y-106172000D02*
X96520000Y-111760000D01*
X99060000Y-101600000D02*
X96520000Y-104140000D01*
X93980000Y-81280000D02*
X96520000Y-83820000D01*
X96520000Y-83820000D02*
X96520000Y-86360000D01*
X88900000Y-93980000D02*
X81280000Y-101600000D01*
X114300000Y-81280000D02*
X104140000Y-81280000D01*
X105664000Y-98044000D02*
X105664000Y-99588000D01*
X105156000Y-97536000D02*
X105664000Y-98044000D01*
X104140000Y-97536000D02*
X105156000Y-97536000D01*
X103632000Y-98044000D02*
X104140000Y-97536000D01*
X103632000Y-100076000D02*
X103632000Y-98044000D01*
X134366000Y-97048000D02*
X132608000Y-97048000D01*
X132588000Y-94488000D02*
X133604000Y-93472000D01*
X132588000Y-97028000D02*
X132588000Y-94488000D01*
X132608000Y-97048000D02*
X132588000Y-97028000D01*
X136652000Y-95778000D02*
X134894000Y-95778000D01*
X110490000Y-83566000D02*
X107696000Y-86360000D01*
X112776000Y-91440000D02*
X113792000Y-92456000D01*
X113792000Y-92456000D02*
X113792000Y-96520000D01*
X121920000Y-96520000D02*
X124968000Y-93472000D01*
X124968000Y-93472000D02*
X127000000Y-93472000D01*
X110490000Y-83566000D02*
X117348000Y-83566000D01*
X133604000Y-94488000D02*
X133604000Y-93472000D01*
X134894000Y-95778000D02*
X133604000Y-94488000D01*
X132682000Y-112141000D02*
X131191000Y-112141000D01*
X130048000Y-113284000D02*
X130048000Y-114300000D01*
X131191000Y-112141000D02*
X130048000Y-113284000D01*
X153924000Y-110664000D02*
X152480000Y-110664000D01*
X152052000Y-110236000D02*
X151892000Y-110236000D01*
X152480000Y-110664000D02*
X152052000Y-110236000D01*
X146304000Y-110664000D02*
X148256000Y-110664000D01*
X148684000Y-110236000D02*
X148844000Y-110236000D01*
X148256000Y-110664000D02*
X148684000Y-110236000D01*
X132842000Y-86694000D02*
X132842000Y-88646000D01*
X139954000Y-89154000D02*
X139954000Y-88138000D01*
X139954000Y-88138000D02*
X139954000Y-86694000D01*
X140716000Y-89916000D02*
X139954000Y-89154000D01*
X134112000Y-89916000D02*
X135636000Y-89916000D01*
X132842000Y-88646000D02*
X134112000Y-89916000D01*
X129540000Y-81280000D02*
X129540000Y-85344000D01*
X129540000Y-85344000D02*
X130890000Y-86694000D01*
X130890000Y-86694000D02*
X132842000Y-86694000D01*
X121920000Y-81280000D02*
X129540000Y-81280000D01*
X132842000Y-86694000D02*
X132842000Y-87122000D01*
X154686000Y-85852000D02*
X149432000Y-85852000D01*
X149432000Y-85852000D02*
X149098000Y-85518000D01*
X149098000Y-85518000D02*
X147066000Y-85518000D01*
X160528000Y-106172000D02*
X160528000Y-110744000D01*
X160528000Y-110744000D02*
X161036000Y-111252000D01*
X160528000Y-106172000D02*
X164512000Y-106172000D01*
X164512000Y-106172000D02*
X164592000Y-106252000D01*
X143764000Y-110236000D02*
X145288000Y-108712000D01*
X145288000Y-108712000D02*
X147320000Y-108712000D01*
X147320000Y-108712000D02*
X148844000Y-110236000D01*
X151892000Y-110236000D02*
X152400000Y-109728000D01*
X152400000Y-109728000D02*
X152400000Y-106680000D01*
X105664000Y-116820000D02*
X106700000Y-116820000D01*
X121920000Y-114300000D02*
X130048000Y-114300000D01*
X130048000Y-114300000D02*
X134620000Y-114300000D01*
X106700000Y-116820000D02*
X109220000Y-114300000D01*
X164084000Y-109728000D02*
X164084000Y-114300000D01*
X160528000Y-106172000D02*
X164084000Y-109728000D01*
X105664000Y-116820000D02*
X96500000Y-116820000D01*
X96500000Y-116820000D02*
X93980000Y-114300000D01*
X89052400Y-113411000D02*
X83185000Y-113411000D01*
X83185000Y-113411000D02*
X82296000Y-114300000D01*
D33*
X154686000Y-85852000D02*
X154686000Y-94996000D01*
X151276000Y-97644000D02*
X152038000Y-97644000D01*
X149792000Y-97644000D02*
X151276000Y-97644000D01*
X152038000Y-97644000D02*
X154432000Y-95250000D01*
X154432000Y-95250000D02*
X157480000Y-92202000D01*
X157480000Y-92202000D02*
X158496000Y-92202000D01*
X136926000Y-95504000D02*
X136652000Y-95778000D01*
X141292000Y-96844000D02*
X139008000Y-96844000D01*
X139008000Y-96844000D02*
X137922000Y-95758000D01*
X141292000Y-98444000D02*
X138830000Y-98444000D01*
X137922000Y-97536000D02*
X137922000Y-95758000D01*
X138830000Y-98444000D02*
X137922000Y-97536000D01*
X132682000Y-110871000D02*
X130937000Y-110871000D01*
X112776000Y-108204000D02*
X112776000Y-102616000D01*
X117348000Y-112776000D02*
X112776000Y-108204000D01*
X129032000Y-112776000D02*
X117348000Y-112776000D01*
X130937000Y-110871000D02*
X129032000Y-112776000D01*
X105664000Y-110744000D02*
X105664000Y-114320000D01*
X105664000Y-102088000D02*
X107716000Y-102088000D01*
X109140000Y-100664000D02*
X109140000Y-99060000D01*
X107716000Y-102088000D02*
X109140000Y-100664000D01*
X105664000Y-105664000D02*
X105664000Y-102088000D01*
D34*
X156464000Y-116332000D02*
X161036000Y-116332000D01*
X142494000Y-85518000D02*
X142494000Y-81026000D01*
X139065000Y-108331000D02*
X141732000Y-110998000D01*
X141732000Y-110998000D02*
X141732000Y-113538000D01*
X139065000Y-108331000D02*
X138082000Y-108331000D01*
X138430000Y-103124000D02*
X138430000Y-107983000D01*
X138430000Y-107983000D02*
X138082000Y-108331000D01*
X136652000Y-98278000D02*
X137394000Y-98278000D01*
X137394000Y-98278000D02*
X138430000Y-99314000D01*
D33*
X141292000Y-99244000D02*
X139262000Y-99244000D01*
X141292000Y-97644000D02*
X139338000Y-97644000D01*
D32*
X144780000Y-85618000D02*
X144780000Y-84074000D01*
X120650000Y-93726000D02*
X117348000Y-93726000D01*
X122174000Y-92202000D02*
X120650000Y-93726000D01*
X126746000Y-92202000D02*
X122174000Y-92202000D01*
X134366000Y-99548000D02*
X130944940Y-99548000D01*
X130944940Y-99548000D02*
X129794000Y-98397060D01*
X141292000Y-100044000D02*
X134862000Y-100044000D01*
X134862000Y-100044000D02*
X134366000Y-99548000D01*
X134366000Y-101874000D02*
X131198940Y-101874000D01*
X131198940Y-101874000D02*
X129794000Y-103278940D01*
X141292000Y-100844000D02*
X135396000Y-100844000D01*
X135396000Y-100844000D02*
X134366000Y-101874000D01*
X164592000Y-99822000D02*
X164592000Y-103552000D01*
X158496000Y-97282000D02*
X164592000Y-97282000D01*
X149792000Y-100844000D02*
X152140000Y-100844000D01*
X155702000Y-97282000D02*
X158496000Y-97282000D01*
X152140000Y-100844000D02*
X155702000Y-97282000D01*
X111840000Y-99060000D02*
X117348000Y-99060000D01*
X139954000Y-81026000D02*
X139954000Y-83994000D01*
X141292000Y-95244000D02*
X139948000Y-95244000D01*
X138430000Y-85518000D02*
X139954000Y-83994000D01*
X138430000Y-88900000D02*
X138430000Y-85518000D01*
X139192000Y-89662000D02*
X138430000Y-88900000D01*
X139192000Y-94488000D02*
X139192000Y-89662000D01*
X139948000Y-95244000D02*
X139192000Y-94488000D01*
X132842000Y-81026000D02*
X132842000Y-83994000D01*
X141292000Y-96044000D02*
X139986000Y-96044000D01*
X134540000Y-83994000D02*
X132842000Y-83994000D01*
X135636000Y-85090000D02*
X134540000Y-83994000D01*
X135636000Y-86868000D02*
X135636000Y-85090000D01*
X138684000Y-89916000D02*
X135636000Y-86868000D01*
X138684000Y-94742000D02*
X138684000Y-89916000D01*
X139986000Y-96044000D02*
X138684000Y-94742000D01*
X146304000Y-113364000D02*
X144352000Y-113364000D01*
X142742000Y-111754000D02*
X142742000Y-102294000D01*
X144352000Y-113364000D02*
X142742000Y-111754000D01*
X146304000Y-116332000D02*
X146304000Y-113364000D01*
X153924000Y-113364000D02*
X151972000Y-113364000D01*
X143542000Y-104934000D02*
X143542000Y-102294000D01*
X145288000Y-106680000D02*
X143542000Y-104934000D01*
X147828000Y-106680000D02*
X145288000Y-106680000D01*
X150368000Y-109220000D02*
X147828000Y-106680000D01*
X150368000Y-111760000D02*
X150368000Y-109220000D01*
X151972000Y-113364000D02*
X150368000Y-111760000D01*
X153924000Y-116332000D02*
X153924000Y-113364000D01*
X158242000Y-111760000D02*
X158242000Y-113030000D01*
X158242000Y-111760000D02*
X158242000Y-108712000D01*
X158242000Y-108712000D02*
X154940000Y-105410000D01*
X154940000Y-105410000D02*
X146558000Y-105410000D01*
X146558000Y-105410000D02*
X145142000Y-103994000D01*
X145142000Y-102294000D02*
X145142000Y-103994000D01*
X159004000Y-113792000D02*
X161036000Y-113792000D01*
X158242000Y-113030000D02*
X159004000Y-113792000D01*
X147542000Y-102294000D02*
X147542000Y-103854000D01*
X156718000Y-102362000D02*
X158496000Y-102362000D01*
X154432000Y-104648000D02*
X156718000Y-102362000D01*
X148336000Y-104648000D02*
X154432000Y-104648000D01*
X147542000Y-103854000D02*
X148336000Y-104648000D01*
X148342000Y-102294000D02*
X148342000Y-103384000D01*
X156718000Y-99822000D02*
X158496000Y-99822000D01*
X152342002Y-104197998D02*
X156718000Y-99822000D01*
X149155998Y-104197998D02*
X152342002Y-104197998D01*
X148342000Y-103384000D02*
X149155998Y-104197998D01*
X148082000Y-91186000D02*
X148082000Y-90424000D01*
X148082000Y-90170000D02*
X149098000Y-89154000D01*
X149098000Y-89154000D02*
X149098000Y-88218000D01*
X148082000Y-90424000D02*
X148082000Y-90170000D01*
X138082000Y-112141000D02*
X139319000Y-112141000D01*
X139319000Y-112141000D02*
X139446000Y-112014000D01*
X146742000Y-93794000D02*
X146742000Y-92526000D01*
X146742000Y-92526000D02*
X148082000Y-91186000D01*
X146742000Y-93794000D02*
X146742000Y-93034000D01*
X147066000Y-90932000D02*
X147066000Y-89916000D01*
X145942000Y-92056000D02*
X147066000Y-90932000D01*
X147066000Y-89916000D02*
X147066000Y-88218000D01*
X145942000Y-92056000D02*
X146050000Y-91948000D01*
X139319000Y-110871000D02*
X138082000Y-110871000D01*
X139446000Y-110744000D02*
X139319000Y-110871000D01*
X145942000Y-93794000D02*
X145942000Y-92056000D01*
X144342000Y-93794000D02*
X144342000Y-91510000D01*
X128778000Y-88646000D02*
X117348000Y-88646000D01*
X129032000Y-88900000D02*
X128778000Y-88646000D01*
X144342000Y-91510000D02*
X143256000Y-90424000D01*
X143542000Y-93794000D02*
X143542000Y-92742000D01*
X128778000Y-91186000D02*
X117348000Y-91186000D01*
X129032000Y-91440000D02*
X128778000Y-91186000D01*
X143542000Y-92742000D02*
X142240000Y-91440000D01*
X132682000Y-108331000D02*
X129146300Y-108331000D01*
X129146300Y-108331000D02*
X129032000Y-108216700D01*
X132682000Y-109601000D02*
X129146300Y-109601000D01*
X129146300Y-109601000D02*
X129032000Y-109715300D01*
X158496000Y-94742000D02*
X160274000Y-94742000D01*
X162306000Y-92710000D02*
X162306000Y-85852000D01*
X160274000Y-94742000D02*
X162306000Y-92710000D01*
X145142000Y-92710000D02*
X145142000Y-93794000D01*
X144780000Y-88118000D02*
X142594000Y-88118000D01*
X142594000Y-88118000D02*
X142494000Y-88218000D01*
X145142000Y-92778000D02*
X145142000Y-92710000D01*
X145142000Y-92710000D02*
X145142000Y-90170000D01*
X145142000Y-90170000D02*
X145142000Y-89662000D01*
X145142000Y-89662000D02*
X145142000Y-88480000D01*
X145142000Y-88480000D02*
X144780000Y-88118000D01*
D35*
G36*
X131374559Y-79545910D02*
X131229569Y-79758110D01*
X131178560Y-80010000D01*
X131178560Y-82042000D01*
X131222838Y-82277317D01*
X131361910Y-82493441D01*
X131574110Y-82638431D01*
X131826000Y-82689440D01*
X131881153Y-82689440D01*
X131740559Y-82779910D01*
X131595569Y-82992110D01*
X131544560Y-83244000D01*
X131544560Y-84744000D01*
X131588838Y-84979317D01*
X131727910Y-85195441D01*
X131940110Y-85340431D01*
X131973490Y-85347191D01*
X131832301Y-85405673D01*
X131653673Y-85584302D01*
X131557000Y-85817691D01*
X131557000Y-86408250D01*
X131715750Y-86567000D01*
X132715000Y-86567000D01*
X132715000Y-86547000D01*
X132969000Y-86547000D01*
X132969000Y-86567000D01*
X133968250Y-86567000D01*
X134127000Y-86408250D01*
X134127000Y-85817691D01*
X134030327Y-85584302D01*
X133851699Y-85405673D01*
X133715713Y-85349346D01*
X133727317Y-85347162D01*
X133943441Y-85208090D01*
X134088431Y-84995890D01*
X134137415Y-84754000D01*
X134225198Y-84754000D01*
X134876000Y-85404802D01*
X134876000Y-86868000D01*
X134933852Y-87158839D01*
X135098599Y-87405401D01*
X137924000Y-90230802D01*
X137924000Y-94742000D01*
X137981852Y-95032839D01*
X138146599Y-95279401D01*
X139448599Y-96581401D01*
X139695161Y-96746148D01*
X139759772Y-96759000D01*
X139644822Y-96759000D01*
X139524799Y-96709162D01*
X139152833Y-96708838D01*
X138809057Y-96850883D01*
X138545808Y-97113673D01*
X138403162Y-97457201D01*
X138402838Y-97829167D01*
X138423480Y-97879124D01*
X138108178Y-97563822D01*
X137905727Y-97428549D01*
X137880162Y-97292683D01*
X137741090Y-97076559D01*
X137672994Y-97030031D01*
X137815327Y-96887698D01*
X137912000Y-96654309D01*
X137912000Y-96063750D01*
X137753250Y-95905000D01*
X136779000Y-95905000D01*
X136779000Y-95925000D01*
X136525000Y-95925000D01*
X136525000Y-95905000D01*
X135550750Y-95905000D01*
X135523388Y-95932362D01*
X135350699Y-95759673D01*
X135117310Y-95663000D01*
X134651750Y-95663000D01*
X134493000Y-95821750D01*
X134493000Y-96921000D01*
X134513000Y-96921000D01*
X134513000Y-97175000D01*
X134493000Y-97175000D01*
X134493000Y-97195000D01*
X134239000Y-97195000D01*
X134239000Y-97175000D01*
X133264750Y-97175000D01*
X133106000Y-97333750D01*
X133106000Y-97924309D01*
X133202673Y-98157698D01*
X133343910Y-98298936D01*
X133289559Y-98333910D01*
X133144569Y-98546110D01*
X133095585Y-98788000D01*
X131259742Y-98788000D01*
X131169438Y-98697696D01*
X131179329Y-98673876D01*
X131179810Y-98122662D01*
X130969314Y-97613223D01*
X130579887Y-97223116D01*
X130070816Y-97011731D01*
X129519602Y-97011250D01*
X129010163Y-97221746D01*
X128620056Y-97611173D01*
X128408671Y-98120244D01*
X128408190Y-98671458D01*
X128618686Y-99180897D01*
X129008113Y-99571004D01*
X129517184Y-99782389D01*
X130068398Y-99782870D01*
X130094304Y-99772166D01*
X130407539Y-100085401D01*
X130654101Y-100250148D01*
X130944940Y-100308000D01*
X133095442Y-100308000D01*
X133137838Y-100533317D01*
X133253375Y-100712867D01*
X133144569Y-100872110D01*
X133095585Y-101114000D01*
X131198940Y-101114000D01*
X130908100Y-101171852D01*
X130661539Y-101336599D01*
X130094636Y-101903502D01*
X130070816Y-101893611D01*
X129519602Y-101893130D01*
X129010163Y-102103626D01*
X128620056Y-102493053D01*
X128408671Y-103002124D01*
X128408190Y-103553338D01*
X128618686Y-104062777D01*
X129008113Y-104452884D01*
X129517184Y-104664269D01*
X130068398Y-104664750D01*
X130080498Y-104659750D01*
X133106000Y-104659750D01*
X133106000Y-105250309D01*
X133202673Y-105483698D01*
X133381301Y-105662327D01*
X133614690Y-105759000D01*
X134080250Y-105759000D01*
X134239000Y-105600250D01*
X134239000Y-104501000D01*
X134493000Y-104501000D01*
X134493000Y-105600250D01*
X134651750Y-105759000D01*
X135117310Y-105759000D01*
X135350699Y-105662327D01*
X135529327Y-105483698D01*
X135626000Y-105250309D01*
X135626000Y-104659750D01*
X135467250Y-104501000D01*
X134493000Y-104501000D01*
X134239000Y-104501000D01*
X133264750Y-104501000D01*
X133106000Y-104659750D01*
X130080498Y-104659750D01*
X130577837Y-104454254D01*
X130967944Y-104064827D01*
X131179329Y-103555756D01*
X131179810Y-103004542D01*
X131169106Y-102978636D01*
X131513742Y-102634000D01*
X133095442Y-102634000D01*
X133137838Y-102859317D01*
X133276910Y-103075441D01*
X133345006Y-103121969D01*
X133202673Y-103264302D01*
X133106000Y-103497691D01*
X133106000Y-104088250D01*
X133264750Y-104247000D01*
X134239000Y-104247000D01*
X134239000Y-104227000D01*
X134493000Y-104227000D01*
X134493000Y-104247000D01*
X135467250Y-104247000D01*
X135626000Y-104088250D01*
X135626000Y-103497691D01*
X135529327Y-103264302D01*
X135388090Y-103123064D01*
X135442441Y-103088090D01*
X135587431Y-102875890D01*
X135638440Y-102624000D01*
X135638440Y-101676362D01*
X135710802Y-101604000D01*
X140077025Y-101604000D01*
X140240110Y-101715431D01*
X140492000Y-101766440D01*
X141819560Y-101766440D01*
X141819560Y-103094000D01*
X141863838Y-103329317D01*
X141982000Y-103512946D01*
X141982000Y-109819644D01*
X139779178Y-107616822D01*
X139451510Y-107397882D01*
X139440000Y-107395593D01*
X139440000Y-103651314D01*
X139564803Y-103350756D01*
X139565197Y-102899225D01*
X139392767Y-102481914D01*
X139073765Y-102162355D01*
X138656756Y-101989197D01*
X138205225Y-101988803D01*
X137787914Y-102161233D01*
X137468355Y-102480235D01*
X137295197Y-102897244D01*
X137294803Y-103348775D01*
X137420000Y-103651774D01*
X137420000Y-107383560D01*
X137307000Y-107383560D01*
X137071683Y-107427838D01*
X136855559Y-107566910D01*
X136710569Y-107779110D01*
X136659560Y-108031000D01*
X136659560Y-108631000D01*
X136703838Y-108866317D01*
X136767678Y-108965528D01*
X136710569Y-109049110D01*
X136659560Y-109301000D01*
X136659560Y-109901000D01*
X136703838Y-110136317D01*
X136767678Y-110235528D01*
X136710569Y-110319110D01*
X136659560Y-110571000D01*
X136659560Y-111171000D01*
X136703838Y-111406317D01*
X136767678Y-111505528D01*
X136710569Y-111589110D01*
X136659560Y-111841000D01*
X136659560Y-112441000D01*
X136703838Y-112676317D01*
X136842910Y-112892441D01*
X137055110Y-113037431D01*
X137307000Y-113088440D01*
X138857000Y-113088440D01*
X139092317Y-113044162D01*
X139247807Y-112944107D01*
X139259201Y-112948838D01*
X139631167Y-112949162D01*
X139974943Y-112807117D01*
X140238192Y-112544327D01*
X140380838Y-112200799D01*
X140381162Y-111828833D01*
X140239117Y-111485057D01*
X140133290Y-111379046D01*
X140238192Y-111274327D01*
X140338472Y-111032828D01*
X140722000Y-111416356D01*
X140722000Y-113010686D01*
X140597197Y-113311244D01*
X140596803Y-113762775D01*
X140769233Y-114180086D01*
X141088235Y-114499645D01*
X141505244Y-114672803D01*
X141956775Y-114673197D01*
X142374086Y-114500767D01*
X142693645Y-114181765D01*
X142866803Y-113764756D01*
X142867197Y-113313225D01*
X142742000Y-113010226D01*
X142742000Y-112828802D01*
X143814599Y-113901401D01*
X144061161Y-114066148D01*
X144352000Y-114124000D01*
X145008442Y-114124000D01*
X145050838Y-114349317D01*
X145189910Y-114565441D01*
X145340830Y-114668560D01*
X145288000Y-114668560D01*
X145052683Y-114712838D01*
X144836559Y-114851910D01*
X144691569Y-115064110D01*
X144640560Y-115316000D01*
X144640560Y-117348000D01*
X144684838Y-117583317D01*
X144730321Y-117654000D01*
X106924000Y-117654000D01*
X106924000Y-117105750D01*
X106765250Y-116947000D01*
X105791000Y-116947000D01*
X105791000Y-116967000D01*
X105537000Y-116967000D01*
X105537000Y-116947000D01*
X104562750Y-116947000D01*
X104404000Y-117105750D01*
X104404000Y-117654000D01*
X81977042Y-117654000D01*
X82351677Y-117403677D01*
X82835947Y-116678915D01*
X83006000Y-115824000D01*
X82835947Y-114969085D01*
X82351677Y-114244323D01*
X81626915Y-113760053D01*
X81308670Y-113696750D01*
X86667340Y-113696750D01*
X86667340Y-115287370D01*
X86764013Y-115520759D01*
X86942642Y-115699387D01*
X87176031Y-115796060D01*
X88766650Y-115796060D01*
X88925400Y-115637310D01*
X88925400Y-113538000D01*
X89179400Y-113538000D01*
X89179400Y-115637310D01*
X89338150Y-115796060D01*
X90928769Y-115796060D01*
X91162158Y-115699387D01*
X91340787Y-115520759D01*
X91437460Y-115287370D01*
X91437460Y-113696750D01*
X91278710Y-113538000D01*
X89179400Y-113538000D01*
X88925400Y-113538000D01*
X86826090Y-113538000D01*
X86667340Y-113696750D01*
X81308670Y-113696750D01*
X80772000Y-113590000D01*
X79917085Y-113760053D01*
X79192323Y-114244323D01*
X78942000Y-114618958D01*
X78942000Y-106961940D01*
X83655160Y-106961940D01*
X83655160Y-110462060D01*
X83699438Y-110697377D01*
X83838510Y-110913501D01*
X84050710Y-111058491D01*
X84302600Y-111109500D01*
X86974300Y-111109500D01*
X86942642Y-111122613D01*
X86764013Y-111301241D01*
X86667340Y-111534630D01*
X86667340Y-113125250D01*
X86826090Y-113284000D01*
X88925400Y-113284000D01*
X88925400Y-111184690D01*
X89179400Y-111184690D01*
X89179400Y-113284000D01*
X91278710Y-113284000D01*
X91437460Y-113125250D01*
X91437460Y-111534630D01*
X91340787Y-111301241D01*
X91162158Y-111122613D01*
X91100468Y-111097060D01*
X91766390Y-111097060D01*
X91925140Y-110938310D01*
X91925140Y-108839000D01*
X92179140Y-108839000D01*
X92179140Y-110938310D01*
X92337890Y-111097060D01*
X93928509Y-111097060D01*
X94161898Y-111000387D01*
X94340527Y-110821759D01*
X94372735Y-110744000D01*
X103742397Y-110744000D01*
X103847867Y-111274235D01*
X104148221Y-111723746D01*
X104597732Y-112024100D01*
X104779000Y-112060156D01*
X104779000Y-112982721D01*
X104587559Y-113105910D01*
X104442569Y-113318110D01*
X104391560Y-113570000D01*
X104391560Y-115070000D01*
X104435838Y-115305317D01*
X104574910Y-115521441D01*
X104643006Y-115567969D01*
X104500673Y-115710302D01*
X104404000Y-115943691D01*
X104404000Y-116534250D01*
X104562750Y-116693000D01*
X105537000Y-116693000D01*
X105537000Y-116673000D01*
X105791000Y-116673000D01*
X105791000Y-116693000D01*
X106765250Y-116693000D01*
X106924000Y-116534250D01*
X106924000Y-115943691D01*
X106827327Y-115710302D01*
X106686090Y-115569064D01*
X106740441Y-115534090D01*
X106885431Y-115321890D01*
X106936440Y-115070000D01*
X106936440Y-113570000D01*
X106892162Y-113334683D01*
X106753090Y-113118559D01*
X106549000Y-112979110D01*
X106549000Y-112060156D01*
X106730268Y-112024100D01*
X107179779Y-111723746D01*
X107480133Y-111274235D01*
X107585603Y-110744000D01*
X107480133Y-110213765D01*
X107179779Y-109764254D01*
X106730268Y-109463900D01*
X106720968Y-109462050D01*
X106810677Y-109435499D01*
X107232658Y-109093944D01*
X107491810Y-108616903D01*
X107505993Y-108545275D01*
X107383339Y-108331000D01*
X105791000Y-108331000D01*
X105791000Y-108351000D01*
X105537000Y-108351000D01*
X105537000Y-108331000D01*
X103944661Y-108331000D01*
X103822007Y-108545275D01*
X103836190Y-108616903D01*
X104095342Y-109093944D01*
X104517323Y-109435499D01*
X104607032Y-109462050D01*
X104597732Y-109463900D01*
X104148221Y-109764254D01*
X103847867Y-110213765D01*
X103742397Y-110744000D01*
X94372735Y-110744000D01*
X94437200Y-110588370D01*
X94437200Y-108997750D01*
X94278450Y-108839000D01*
X92179140Y-108839000D01*
X91925140Y-108839000D01*
X89825830Y-108839000D01*
X89667080Y-108997750D01*
X89667080Y-110588370D01*
X89763753Y-110821759D01*
X89942382Y-111000387D01*
X90004072Y-111025940D01*
X89338150Y-111025940D01*
X89179400Y-111184690D01*
X88925400Y-111184690D01*
X88766650Y-111025940D01*
X88099083Y-111025940D01*
X88254161Y-110926150D01*
X88399151Y-110713950D01*
X88450160Y-110462060D01*
X88450160Y-106961940D01*
X88426394Y-106835630D01*
X89667080Y-106835630D01*
X89667080Y-108426250D01*
X89825830Y-108585000D01*
X91925140Y-108585000D01*
X91925140Y-106485690D01*
X92179140Y-106485690D01*
X92179140Y-108585000D01*
X94278450Y-108585000D01*
X94437200Y-108426250D01*
X94437200Y-106835630D01*
X94340527Y-106602241D01*
X94161898Y-106423613D01*
X93928509Y-106326940D01*
X92337890Y-106326940D01*
X92179140Y-106485690D01*
X91925140Y-106485690D01*
X91766390Y-106326940D01*
X90175771Y-106326940D01*
X89942382Y-106423613D01*
X89763753Y-106602241D01*
X89667080Y-106835630D01*
X88426394Y-106835630D01*
X88405882Y-106726623D01*
X88266810Y-106510499D01*
X88054610Y-106365509D01*
X87802720Y-106314500D01*
X84302600Y-106314500D01*
X84067283Y-106358778D01*
X83851159Y-106497850D01*
X83706169Y-106710050D01*
X83655160Y-106961940D01*
X78942000Y-106961940D01*
X78942000Y-105664000D01*
X103742397Y-105664000D01*
X103847867Y-106194235D01*
X104148221Y-106643746D01*
X104597732Y-106944100D01*
X104607032Y-106945950D01*
X104517323Y-106972501D01*
X104095342Y-107314056D01*
X103836190Y-107791097D01*
X103822007Y-107862725D01*
X103944661Y-108077000D01*
X105537000Y-108077000D01*
X105537000Y-108057000D01*
X105791000Y-108057000D01*
X105791000Y-108077000D01*
X107383339Y-108077000D01*
X107505993Y-107862725D01*
X107491810Y-107791097D01*
X107232658Y-107314056D01*
X106810677Y-106972501D01*
X106720968Y-106945950D01*
X106730268Y-106944100D01*
X107179779Y-106643746D01*
X107480133Y-106194235D01*
X107585603Y-105664000D01*
X107480133Y-105133765D01*
X107179779Y-104684254D01*
X106730268Y-104383900D01*
X106549000Y-104347844D01*
X106549000Y-103425279D01*
X106740441Y-103302090D01*
X106885431Y-103089890D01*
X106909102Y-102973000D01*
X107715995Y-102973000D01*
X107716000Y-102973001D01*
X107998484Y-102916810D01*
X108054675Y-102905633D01*
X108151742Y-102840775D01*
X111640803Y-102840775D01*
X111813233Y-103258086D01*
X111891000Y-103335989D01*
X111891000Y-108203995D01*
X111890999Y-108204000D01*
X111941922Y-108460000D01*
X111958367Y-108542675D01*
X112099637Y-108754101D01*
X112150210Y-108829790D01*
X116722208Y-113401787D01*
X116722210Y-113401790D01*
X117009325Y-113593633D01*
X117348000Y-113661000D01*
X129031995Y-113661000D01*
X129032000Y-113661001D01*
X129314484Y-113604810D01*
X129370675Y-113593633D01*
X129657790Y-113401790D01*
X129657791Y-113401789D01*
X130632829Y-112426750D01*
X131272000Y-112426750D01*
X131272000Y-112567310D01*
X131368673Y-112800699D01*
X131547302Y-112979327D01*
X131780691Y-113076000D01*
X132396250Y-113076000D01*
X132555000Y-112917250D01*
X132555000Y-112268000D01*
X132809000Y-112268000D01*
X132809000Y-112917250D01*
X132967750Y-113076000D01*
X133583309Y-113076000D01*
X133816698Y-112979327D01*
X133995327Y-112800699D01*
X134092000Y-112567310D01*
X134092000Y-112426750D01*
X133933250Y-112268000D01*
X132809000Y-112268000D01*
X132555000Y-112268000D01*
X131430750Y-112268000D01*
X131272000Y-112426750D01*
X130632829Y-112426750D01*
X131272000Y-111787579D01*
X131272000Y-111855250D01*
X131430750Y-112014000D01*
X132555000Y-112014000D01*
X132555000Y-111994000D01*
X132809000Y-111994000D01*
X132809000Y-112014000D01*
X133933250Y-112014000D01*
X134092000Y-111855250D01*
X134092000Y-111714690D01*
X134002194Y-111497878D01*
X134053431Y-111422890D01*
X134104440Y-111171000D01*
X134104440Y-110571000D01*
X134060162Y-110335683D01*
X133996322Y-110236472D01*
X134053431Y-110152890D01*
X134104440Y-109901000D01*
X134104440Y-109301000D01*
X134060162Y-109065683D01*
X133996322Y-108966472D01*
X134053431Y-108882890D01*
X134104440Y-108631000D01*
X134104440Y-108031000D01*
X134060162Y-107795683D01*
X133921090Y-107579559D01*
X133708890Y-107434569D01*
X133457000Y-107383560D01*
X131907000Y-107383560D01*
X131671683Y-107427838D01*
X131455559Y-107566910D01*
X131452764Y-107571000D01*
X130528145Y-107571000D01*
X130488993Y-107374170D01*
X130242874Y-107005826D01*
X129874530Y-106759707D01*
X129440039Y-106673281D01*
X129005548Y-106759707D01*
X128637204Y-107005826D01*
X128244994Y-107398036D01*
X127998875Y-107766380D01*
X127912449Y-108200871D01*
X127998875Y-108635362D01*
X128219800Y-108966000D01*
X127998875Y-109296638D01*
X127912449Y-109731129D01*
X127998875Y-110165620D01*
X128244994Y-110533964D01*
X128637204Y-110926174D01*
X129005548Y-111172293D01*
X129321317Y-111235104D01*
X128665420Y-111891000D01*
X117714579Y-111891000D01*
X113661000Y-107837420D01*
X113661000Y-103336276D01*
X113737645Y-103259765D01*
X113910803Y-102842756D01*
X113911197Y-102391225D01*
X113738767Y-101973914D01*
X113650757Y-101885750D01*
X115713000Y-101885750D01*
X115713000Y-102676310D01*
X115809673Y-102909699D01*
X115988302Y-103088327D01*
X116221691Y-103185000D01*
X117062250Y-103185000D01*
X117221000Y-103026250D01*
X117221000Y-101727000D01*
X117475000Y-101727000D01*
X117475000Y-103026250D01*
X117633750Y-103185000D01*
X118474309Y-103185000D01*
X118707698Y-103088327D01*
X118886327Y-102909699D01*
X118983000Y-102676310D01*
X118983000Y-101885750D01*
X118824250Y-101727000D01*
X117475000Y-101727000D01*
X117221000Y-101727000D01*
X115871750Y-101727000D01*
X115713000Y-101885750D01*
X113650757Y-101885750D01*
X113419765Y-101654355D01*
X113002756Y-101481197D01*
X112551225Y-101480803D01*
X112133914Y-101653233D01*
X111814355Y-101972235D01*
X111641197Y-102389244D01*
X111640803Y-102840775D01*
X108151742Y-102840775D01*
X108341790Y-102713790D01*
X109765787Y-101289792D01*
X109765790Y-101289790D01*
X109957633Y-101002675D01*
X109977665Y-100901969D01*
X110025001Y-100664000D01*
X110025000Y-100663995D01*
X110025000Y-100332038D01*
X110125317Y-100313162D01*
X110341441Y-100174090D01*
X110486431Y-99961890D01*
X110489081Y-99948803D01*
X110625910Y-100161441D01*
X110838110Y-100306431D01*
X111090000Y-100357440D01*
X112590000Y-100357440D01*
X112825317Y-100313162D01*
X113041441Y-100174090D01*
X113186431Y-99961890D01*
X113215164Y-99820000D01*
X115947053Y-99820000D01*
X116003519Y-99956657D01*
X116108545Y-100061867D01*
X115988302Y-100111673D01*
X115809673Y-100290301D01*
X115713000Y-100523690D01*
X115713000Y-101314250D01*
X115871750Y-101473000D01*
X117221000Y-101473000D01*
X117221000Y-101453000D01*
X117475000Y-101453000D01*
X117475000Y-101473000D01*
X118824250Y-101473000D01*
X118983000Y-101314250D01*
X118983000Y-100523690D01*
X118886327Y-100290301D01*
X118707698Y-100111673D01*
X118587749Y-100061988D01*
X118690914Y-99959003D01*
X118932724Y-99376659D01*
X118933275Y-98746107D01*
X118692481Y-98163343D01*
X118247003Y-97717086D01*
X117664659Y-97475276D01*
X117034107Y-97474725D01*
X116451343Y-97715519D01*
X116005086Y-98160997D01*
X115947367Y-98300000D01*
X113216742Y-98300000D01*
X113193162Y-98174683D01*
X113054090Y-97958559D01*
X112841890Y-97813569D01*
X112590000Y-97762560D01*
X111090000Y-97762560D01*
X110854683Y-97806838D01*
X110638559Y-97945910D01*
X110493569Y-98158110D01*
X110490919Y-98171197D01*
X110354090Y-97958559D01*
X110141890Y-97813569D01*
X109890000Y-97762560D01*
X108390000Y-97762560D01*
X108154683Y-97806838D01*
X107938559Y-97945910D01*
X107793569Y-98158110D01*
X107742560Y-98410000D01*
X107742560Y-99710000D01*
X107786838Y-99945317D01*
X107925910Y-100161441D01*
X108138110Y-100306431D01*
X108227823Y-100324598D01*
X107349420Y-101203000D01*
X106911038Y-101203000D01*
X106892162Y-101102683D01*
X106753090Y-100886559D01*
X106684994Y-100840031D01*
X106827327Y-100697698D01*
X106924000Y-100464309D01*
X106924000Y-99873750D01*
X106765250Y-99715000D01*
X105791000Y-99715000D01*
X105791000Y-99735000D01*
X105537000Y-99735000D01*
X105537000Y-99715000D01*
X104562750Y-99715000D01*
X104404000Y-99873750D01*
X104404000Y-100464309D01*
X104500673Y-100697698D01*
X104641910Y-100838936D01*
X104587559Y-100873910D01*
X104442569Y-101086110D01*
X104391560Y-101338000D01*
X104391560Y-102838000D01*
X104435838Y-103073317D01*
X104574910Y-103289441D01*
X104779000Y-103428890D01*
X104779000Y-104347844D01*
X104597732Y-104383900D01*
X104148221Y-104684254D01*
X103847867Y-105133765D01*
X103742397Y-105664000D01*
X78942000Y-105664000D01*
X78942000Y-98711691D01*
X104404000Y-98711691D01*
X104404000Y-99302250D01*
X104562750Y-99461000D01*
X105537000Y-99461000D01*
X105537000Y-98361750D01*
X105791000Y-98361750D01*
X105791000Y-99461000D01*
X106765250Y-99461000D01*
X106924000Y-99302250D01*
X106924000Y-98711691D01*
X106827327Y-98478302D01*
X106648699Y-98299673D01*
X106415310Y-98203000D01*
X105949750Y-98203000D01*
X105791000Y-98361750D01*
X105537000Y-98361750D01*
X105378250Y-98203000D01*
X104912690Y-98203000D01*
X104679301Y-98299673D01*
X104500673Y-98478302D01*
X104404000Y-98711691D01*
X78942000Y-98711691D01*
X78942000Y-96171691D01*
X133106000Y-96171691D01*
X133106000Y-96762250D01*
X133264750Y-96921000D01*
X134239000Y-96921000D01*
X134239000Y-95821750D01*
X134080250Y-95663000D01*
X133614690Y-95663000D01*
X133381301Y-95759673D01*
X133202673Y-95938302D01*
X133106000Y-96171691D01*
X78942000Y-96171691D01*
X78942000Y-91059000D01*
X78972000Y-91059000D01*
X78972000Y-92709000D01*
X79155943Y-93379744D01*
X79582567Y-93929039D01*
X80186922Y-94273259D01*
X80347134Y-94313757D01*
X80623000Y-94196262D01*
X80623000Y-91059000D01*
X80877000Y-91059000D01*
X80877000Y-94196262D01*
X81152866Y-94313757D01*
X81313078Y-94273259D01*
X81917433Y-93929039D01*
X82344057Y-93379744D01*
X82528000Y-92709000D01*
X82528000Y-91059000D01*
X80877000Y-91059000D01*
X80623000Y-91059000D01*
X78972000Y-91059000D01*
X78942000Y-91059000D01*
X78942000Y-89155000D01*
X78972000Y-89155000D01*
X78972000Y-90805000D01*
X80623000Y-90805000D01*
X80623000Y-87667738D01*
X80877000Y-87667738D01*
X80877000Y-90805000D01*
X82528000Y-90805000D01*
X82528000Y-90249727D01*
X106172000Y-90249727D01*
X106172000Y-91614273D01*
X106307342Y-92294684D01*
X106692764Y-92871509D01*
X107269589Y-93256931D01*
X107950000Y-93392273D01*
X108630411Y-93256931D01*
X109207236Y-92871509D01*
X109592658Y-92294684D01*
X109728000Y-91614273D01*
X109728000Y-90249727D01*
X109592658Y-89569316D01*
X109207236Y-88992491D01*
X108630411Y-88607069D01*
X107950000Y-88471727D01*
X107269589Y-88607069D01*
X106692764Y-88992491D01*
X106307342Y-89569316D01*
X106172000Y-90249727D01*
X82528000Y-90249727D01*
X82528000Y-89155000D01*
X82344057Y-88484256D01*
X81917433Y-87934961D01*
X81313078Y-87590741D01*
X81152866Y-87550243D01*
X80877000Y-87667738D01*
X80623000Y-87667738D01*
X80347134Y-87550243D01*
X80186922Y-87590741D01*
X79582567Y-87934961D01*
X79155943Y-88484256D01*
X78972000Y-89155000D01*
X78942000Y-89155000D01*
X78942000Y-86106000D01*
X115664655Y-86106000D01*
X115778729Y-86679489D01*
X116103585Y-87165670D01*
X116418366Y-87376000D01*
X116103585Y-87586330D01*
X115778729Y-88072511D01*
X115664655Y-88646000D01*
X115778729Y-89219489D01*
X116103585Y-89705670D01*
X116418366Y-89916000D01*
X116103585Y-90126330D01*
X115778729Y-90612511D01*
X115664655Y-91186000D01*
X115778729Y-91759489D01*
X116103585Y-92245670D01*
X116117913Y-92255243D01*
X116096683Y-92259238D01*
X115880559Y-92398310D01*
X115735569Y-92610510D01*
X115684560Y-92862400D01*
X115684560Y-94589600D01*
X115728838Y-94824917D01*
X115867910Y-95041041D01*
X116080110Y-95186031D01*
X116332000Y-95237040D01*
X118364000Y-95237040D01*
X118599317Y-95192762D01*
X118815441Y-95053690D01*
X118919297Y-94901691D01*
X135392000Y-94901691D01*
X135392000Y-95492250D01*
X135550750Y-95651000D01*
X136525000Y-95651000D01*
X136525000Y-94551750D01*
X136779000Y-94551750D01*
X136779000Y-95651000D01*
X137753250Y-95651000D01*
X137912000Y-95492250D01*
X137912000Y-94901691D01*
X137815327Y-94668302D01*
X137636699Y-94489673D01*
X137403310Y-94393000D01*
X136937750Y-94393000D01*
X136779000Y-94551750D01*
X136525000Y-94551750D01*
X136366250Y-94393000D01*
X135900690Y-94393000D01*
X135667301Y-94489673D01*
X135488673Y-94668302D01*
X135392000Y-94901691D01*
X118919297Y-94901691D01*
X118960431Y-94841490D01*
X119011440Y-94589600D01*
X119011440Y-94486000D01*
X120650000Y-94486000D01*
X120940839Y-94428148D01*
X121187401Y-94263401D01*
X122488802Y-92962000D01*
X126183537Y-92962000D01*
X126215673Y-92994192D01*
X126559201Y-93136838D01*
X126931167Y-93137162D01*
X127274943Y-92995117D01*
X127538192Y-92732327D01*
X127680838Y-92388799D01*
X127681162Y-92016833D01*
X127651894Y-91946000D01*
X128229403Y-91946000D01*
X128238883Y-91968943D01*
X128501673Y-92232192D01*
X128845201Y-92374838D01*
X129217167Y-92375162D01*
X129560943Y-92233117D01*
X129824192Y-91970327D01*
X129966838Y-91626799D01*
X129967162Y-91254833D01*
X129825117Y-90911057D01*
X129562327Y-90647808D01*
X129218799Y-90505162D01*
X129100578Y-90505059D01*
X129068839Y-90483852D01*
X128778000Y-90426000D01*
X118792648Y-90426000D01*
X118592415Y-90126330D01*
X118277634Y-89916000D01*
X118592415Y-89705670D01*
X118792648Y-89406000D01*
X128229403Y-89406000D01*
X128238883Y-89428943D01*
X128501673Y-89692192D01*
X128845201Y-89834838D01*
X129217167Y-89835162D01*
X129560943Y-89693117D01*
X129824192Y-89430327D01*
X129966838Y-89086799D01*
X129967162Y-88714833D01*
X129825117Y-88371057D01*
X129562327Y-88107808D01*
X129218799Y-87965162D01*
X129100578Y-87965059D01*
X129068839Y-87943852D01*
X128778000Y-87886000D01*
X118792648Y-87886000D01*
X118592415Y-87586330D01*
X118277634Y-87376000D01*
X118592415Y-87165670D01*
X118716642Y-86979750D01*
X131557000Y-86979750D01*
X131557000Y-87570309D01*
X131653673Y-87803698D01*
X131832301Y-87982327D01*
X132065690Y-88079000D01*
X132556250Y-88079000D01*
X132715000Y-87920250D01*
X132715000Y-86821000D01*
X132969000Y-86821000D01*
X132969000Y-87920250D01*
X133127750Y-88079000D01*
X133618310Y-88079000D01*
X133851699Y-87982327D01*
X134030327Y-87803698D01*
X134127000Y-87570309D01*
X134127000Y-86979750D01*
X133968250Y-86821000D01*
X132969000Y-86821000D01*
X132715000Y-86821000D01*
X131715750Y-86821000D01*
X131557000Y-86979750D01*
X118716642Y-86979750D01*
X118917271Y-86679489D01*
X119031345Y-86106000D01*
X118917271Y-85532511D01*
X118592415Y-85046330D01*
X118282931Y-84839539D01*
X118698732Y-84468036D01*
X118952709Y-83940791D01*
X118955358Y-83925026D01*
X118834217Y-83693000D01*
X117475000Y-83693000D01*
X117475000Y-83713000D01*
X117221000Y-83713000D01*
X117221000Y-83693000D01*
X115861783Y-83693000D01*
X115740642Y-83925026D01*
X115743291Y-83940791D01*
X115997268Y-84468036D01*
X116413069Y-84839539D01*
X116103585Y-85046330D01*
X115778729Y-85532511D01*
X115664655Y-86106000D01*
X78942000Y-86106000D01*
X78942000Y-82485042D01*
X79192323Y-82859677D01*
X79917085Y-83343947D01*
X80772000Y-83514000D01*
X81626915Y-83343947D01*
X82351677Y-82859677D01*
X82835947Y-82134915D01*
X82985109Y-81385026D01*
X115740642Y-81385026D01*
X115743291Y-81400791D01*
X115997268Y-81928036D01*
X116409108Y-82296000D01*
X115997268Y-82663964D01*
X115743291Y-83191209D01*
X115740642Y-83206974D01*
X115861783Y-83439000D01*
X117221000Y-83439000D01*
X117221000Y-81153000D01*
X117475000Y-81153000D01*
X117475000Y-83439000D01*
X118834217Y-83439000D01*
X118955358Y-83206974D01*
X118952709Y-83191209D01*
X118698732Y-82663964D01*
X118286892Y-82296000D01*
X118698732Y-81928036D01*
X118952709Y-81400791D01*
X118955358Y-81385026D01*
X118834217Y-81153000D01*
X117475000Y-81153000D01*
X117221000Y-81153000D01*
X115861783Y-81153000D01*
X115740642Y-81385026D01*
X82985109Y-81385026D01*
X83006000Y-81280000D01*
X82884062Y-80666974D01*
X115740642Y-80666974D01*
X115861783Y-80899000D01*
X117221000Y-80899000D01*
X117221000Y-79685076D01*
X117475000Y-79685076D01*
X117475000Y-80899000D01*
X118834217Y-80899000D01*
X118955358Y-80666974D01*
X118952709Y-80651209D01*
X118698732Y-80123964D01*
X118262320Y-79734046D01*
X117709913Y-79540816D01*
X117475000Y-79685076D01*
X117221000Y-79685076D01*
X116986087Y-79540816D01*
X116433680Y-79734046D01*
X115997268Y-80123964D01*
X115743291Y-80651209D01*
X115740642Y-80666974D01*
X82884062Y-80666974D01*
X82835947Y-80425085D01*
X82351677Y-79700323D01*
X81977042Y-79450000D01*
X131523607Y-79450000D01*
X131374559Y-79545910D01*
X131374559Y-79545910D01*
G37*
X131374559Y-79545910D02*
X131229569Y-79758110D01*
X131178560Y-80010000D01*
X131178560Y-82042000D01*
X131222838Y-82277317D01*
X131361910Y-82493441D01*
X131574110Y-82638431D01*
X131826000Y-82689440D01*
X131881153Y-82689440D01*
X131740559Y-82779910D01*
X131595569Y-82992110D01*
X131544560Y-83244000D01*
X131544560Y-84744000D01*
X131588838Y-84979317D01*
X131727910Y-85195441D01*
X131940110Y-85340431D01*
X131973490Y-85347191D01*
X131832301Y-85405673D01*
X131653673Y-85584302D01*
X131557000Y-85817691D01*
X131557000Y-86408250D01*
X131715750Y-86567000D01*
X132715000Y-86567000D01*
X132715000Y-86547000D01*
X132969000Y-86547000D01*
X132969000Y-86567000D01*
X133968250Y-86567000D01*
X134127000Y-86408250D01*
X134127000Y-85817691D01*
X134030327Y-85584302D01*
X133851699Y-85405673D01*
X133715713Y-85349346D01*
X133727317Y-85347162D01*
X133943441Y-85208090D01*
X134088431Y-84995890D01*
X134137415Y-84754000D01*
X134225198Y-84754000D01*
X134876000Y-85404802D01*
X134876000Y-86868000D01*
X134933852Y-87158839D01*
X135098599Y-87405401D01*
X137924000Y-90230802D01*
X137924000Y-94742000D01*
X137981852Y-95032839D01*
X138146599Y-95279401D01*
X139448599Y-96581401D01*
X139695161Y-96746148D01*
X139759772Y-96759000D01*
X139644822Y-96759000D01*
X139524799Y-96709162D01*
X139152833Y-96708838D01*
X138809057Y-96850883D01*
X138545808Y-97113673D01*
X138403162Y-97457201D01*
X138402838Y-97829167D01*
X138423480Y-97879124D01*
X138108178Y-97563822D01*
X137905727Y-97428549D01*
X137880162Y-97292683D01*
X137741090Y-97076559D01*
X137672994Y-97030031D01*
X137815327Y-96887698D01*
X137912000Y-96654309D01*
X137912000Y-96063750D01*
X137753250Y-95905000D01*
X136779000Y-95905000D01*
X136779000Y-95925000D01*
X136525000Y-95925000D01*
X136525000Y-95905000D01*
X135550750Y-95905000D01*
X135523388Y-95932362D01*
X135350699Y-95759673D01*
X135117310Y-95663000D01*
X134651750Y-95663000D01*
X134493000Y-95821750D01*
X134493000Y-96921000D01*
X134513000Y-96921000D01*
X134513000Y-97175000D01*
X134493000Y-97175000D01*
X134493000Y-97195000D01*
X134239000Y-97195000D01*
X134239000Y-97175000D01*
X133264750Y-97175000D01*
X133106000Y-97333750D01*
X133106000Y-97924309D01*
X133202673Y-98157698D01*
X133343910Y-98298936D01*
X133289559Y-98333910D01*
X133144569Y-98546110D01*
X133095585Y-98788000D01*
X131259742Y-98788000D01*
X131169438Y-98697696D01*
X131179329Y-98673876D01*
X131179810Y-98122662D01*
X130969314Y-97613223D01*
X130579887Y-97223116D01*
X130070816Y-97011731D01*
X129519602Y-97011250D01*
X129010163Y-97221746D01*
X128620056Y-97611173D01*
X128408671Y-98120244D01*
X128408190Y-98671458D01*
X128618686Y-99180897D01*
X129008113Y-99571004D01*
X129517184Y-99782389D01*
X130068398Y-99782870D01*
X130094304Y-99772166D01*
X130407539Y-100085401D01*
X130654101Y-100250148D01*
X130944940Y-100308000D01*
X133095442Y-100308000D01*
X133137838Y-100533317D01*
X133253375Y-100712867D01*
X133144569Y-100872110D01*
X133095585Y-101114000D01*
X131198940Y-101114000D01*
X130908100Y-101171852D01*
X130661539Y-101336599D01*
X130094636Y-101903502D01*
X130070816Y-101893611D01*
X129519602Y-101893130D01*
X129010163Y-102103626D01*
X128620056Y-102493053D01*
X128408671Y-103002124D01*
X128408190Y-103553338D01*
X128618686Y-104062777D01*
X129008113Y-104452884D01*
X129517184Y-104664269D01*
X130068398Y-104664750D01*
X130080498Y-104659750D01*
X133106000Y-104659750D01*
X133106000Y-105250309D01*
X133202673Y-105483698D01*
X133381301Y-105662327D01*
X133614690Y-105759000D01*
X134080250Y-105759000D01*
X134239000Y-105600250D01*
X134239000Y-104501000D01*
X134493000Y-104501000D01*
X134493000Y-105600250D01*
X134651750Y-105759000D01*
X135117310Y-105759000D01*
X135350699Y-105662327D01*
X135529327Y-105483698D01*
X135626000Y-105250309D01*
X135626000Y-104659750D01*
X135467250Y-104501000D01*
X134493000Y-104501000D01*
X134239000Y-104501000D01*
X133264750Y-104501000D01*
X133106000Y-104659750D01*
X130080498Y-104659750D01*
X130577837Y-104454254D01*
X130967944Y-104064827D01*
X131179329Y-103555756D01*
X131179810Y-103004542D01*
X131169106Y-102978636D01*
X131513742Y-102634000D01*
X133095442Y-102634000D01*
X133137838Y-102859317D01*
X133276910Y-103075441D01*
X133345006Y-103121969D01*
X133202673Y-103264302D01*
X133106000Y-103497691D01*
X133106000Y-104088250D01*
X133264750Y-104247000D01*
X134239000Y-104247000D01*
X134239000Y-104227000D01*
X134493000Y-104227000D01*
X134493000Y-104247000D01*
X135467250Y-104247000D01*
X135626000Y-104088250D01*
X135626000Y-103497691D01*
X135529327Y-103264302D01*
X135388090Y-103123064D01*
X135442441Y-103088090D01*
X135587431Y-102875890D01*
X135638440Y-102624000D01*
X135638440Y-101676362D01*
X135710802Y-101604000D01*
X140077025Y-101604000D01*
X140240110Y-101715431D01*
X140492000Y-101766440D01*
X141819560Y-101766440D01*
X141819560Y-103094000D01*
X141863838Y-103329317D01*
X141982000Y-103512946D01*
X141982000Y-109819644D01*
X139779178Y-107616822D01*
X139451510Y-107397882D01*
X139440000Y-107395593D01*
X139440000Y-103651314D01*
X139564803Y-103350756D01*
X139565197Y-102899225D01*
X139392767Y-102481914D01*
X139073765Y-102162355D01*
X138656756Y-101989197D01*
X138205225Y-101988803D01*
X137787914Y-102161233D01*
X137468355Y-102480235D01*
X137295197Y-102897244D01*
X137294803Y-103348775D01*
X137420000Y-103651774D01*
X137420000Y-107383560D01*
X137307000Y-107383560D01*
X137071683Y-107427838D01*
X136855559Y-107566910D01*
X136710569Y-107779110D01*
X136659560Y-108031000D01*
X136659560Y-108631000D01*
X136703838Y-108866317D01*
X136767678Y-108965528D01*
X136710569Y-109049110D01*
X136659560Y-109301000D01*
X136659560Y-109901000D01*
X136703838Y-110136317D01*
X136767678Y-110235528D01*
X136710569Y-110319110D01*
X136659560Y-110571000D01*
X136659560Y-111171000D01*
X136703838Y-111406317D01*
X136767678Y-111505528D01*
X136710569Y-111589110D01*
X136659560Y-111841000D01*
X136659560Y-112441000D01*
X136703838Y-112676317D01*
X136842910Y-112892441D01*
X137055110Y-113037431D01*
X137307000Y-113088440D01*
X138857000Y-113088440D01*
X139092317Y-113044162D01*
X139247807Y-112944107D01*
X139259201Y-112948838D01*
X139631167Y-112949162D01*
X139974943Y-112807117D01*
X140238192Y-112544327D01*
X140380838Y-112200799D01*
X140381162Y-111828833D01*
X140239117Y-111485057D01*
X140133290Y-111379046D01*
X140238192Y-111274327D01*
X140338472Y-111032828D01*
X140722000Y-111416356D01*
X140722000Y-113010686D01*
X140597197Y-113311244D01*
X140596803Y-113762775D01*
X140769233Y-114180086D01*
X141088235Y-114499645D01*
X141505244Y-114672803D01*
X141956775Y-114673197D01*
X142374086Y-114500767D01*
X142693645Y-114181765D01*
X142866803Y-113764756D01*
X142867197Y-113313225D01*
X142742000Y-113010226D01*
X142742000Y-112828802D01*
X143814599Y-113901401D01*
X144061161Y-114066148D01*
X144352000Y-114124000D01*
X145008442Y-114124000D01*
X145050838Y-114349317D01*
X145189910Y-114565441D01*
X145340830Y-114668560D01*
X145288000Y-114668560D01*
X145052683Y-114712838D01*
X144836559Y-114851910D01*
X144691569Y-115064110D01*
X144640560Y-115316000D01*
X144640560Y-117348000D01*
X144684838Y-117583317D01*
X144730321Y-117654000D01*
X106924000Y-117654000D01*
X106924000Y-117105750D01*
X106765250Y-116947000D01*
X105791000Y-116947000D01*
X105791000Y-116967000D01*
X105537000Y-116967000D01*
X105537000Y-116947000D01*
X104562750Y-116947000D01*
X104404000Y-117105750D01*
X104404000Y-117654000D01*
X81977042Y-117654000D01*
X82351677Y-117403677D01*
X82835947Y-116678915D01*
X83006000Y-115824000D01*
X82835947Y-114969085D01*
X82351677Y-114244323D01*
X81626915Y-113760053D01*
X81308670Y-113696750D01*
X86667340Y-113696750D01*
X86667340Y-115287370D01*
X86764013Y-115520759D01*
X86942642Y-115699387D01*
X87176031Y-115796060D01*
X88766650Y-115796060D01*
X88925400Y-115637310D01*
X88925400Y-113538000D01*
X89179400Y-113538000D01*
X89179400Y-115637310D01*
X89338150Y-115796060D01*
X90928769Y-115796060D01*
X91162158Y-115699387D01*
X91340787Y-115520759D01*
X91437460Y-115287370D01*
X91437460Y-113696750D01*
X91278710Y-113538000D01*
X89179400Y-113538000D01*
X88925400Y-113538000D01*
X86826090Y-113538000D01*
X86667340Y-113696750D01*
X81308670Y-113696750D01*
X80772000Y-113590000D01*
X79917085Y-113760053D01*
X79192323Y-114244323D01*
X78942000Y-114618958D01*
X78942000Y-106961940D01*
X83655160Y-106961940D01*
X83655160Y-110462060D01*
X83699438Y-110697377D01*
X83838510Y-110913501D01*
X84050710Y-111058491D01*
X84302600Y-111109500D01*
X86974300Y-111109500D01*
X86942642Y-111122613D01*
X86764013Y-111301241D01*
X86667340Y-111534630D01*
X86667340Y-113125250D01*
X86826090Y-113284000D01*
X88925400Y-113284000D01*
X88925400Y-111184690D01*
X89179400Y-111184690D01*
X89179400Y-113284000D01*
X91278710Y-113284000D01*
X91437460Y-113125250D01*
X91437460Y-111534630D01*
X91340787Y-111301241D01*
X91162158Y-111122613D01*
X91100468Y-111097060D01*
X91766390Y-111097060D01*
X91925140Y-110938310D01*
X91925140Y-108839000D01*
X92179140Y-108839000D01*
X92179140Y-110938310D01*
X92337890Y-111097060D01*
X93928509Y-111097060D01*
X94161898Y-111000387D01*
X94340527Y-110821759D01*
X94372735Y-110744000D01*
X103742397Y-110744000D01*
X103847867Y-111274235D01*
X104148221Y-111723746D01*
X104597732Y-112024100D01*
X104779000Y-112060156D01*
X104779000Y-112982721D01*
X104587559Y-113105910D01*
X104442569Y-113318110D01*
X104391560Y-113570000D01*
X104391560Y-115070000D01*
X104435838Y-115305317D01*
X104574910Y-115521441D01*
X104643006Y-115567969D01*
X104500673Y-115710302D01*
X104404000Y-115943691D01*
X104404000Y-116534250D01*
X104562750Y-116693000D01*
X105537000Y-116693000D01*
X105537000Y-116673000D01*
X105791000Y-116673000D01*
X105791000Y-116693000D01*
X106765250Y-116693000D01*
X106924000Y-116534250D01*
X106924000Y-115943691D01*
X106827327Y-115710302D01*
X106686090Y-115569064D01*
X106740441Y-115534090D01*
X106885431Y-115321890D01*
X106936440Y-115070000D01*
X106936440Y-113570000D01*
X106892162Y-113334683D01*
X106753090Y-113118559D01*
X106549000Y-112979110D01*
X106549000Y-112060156D01*
X106730268Y-112024100D01*
X107179779Y-111723746D01*
X107480133Y-111274235D01*
X107585603Y-110744000D01*
X107480133Y-110213765D01*
X107179779Y-109764254D01*
X106730268Y-109463900D01*
X106720968Y-109462050D01*
X106810677Y-109435499D01*
X107232658Y-109093944D01*
X107491810Y-108616903D01*
X107505993Y-108545275D01*
X107383339Y-108331000D01*
X105791000Y-108331000D01*
X105791000Y-108351000D01*
X105537000Y-108351000D01*
X105537000Y-108331000D01*
X103944661Y-108331000D01*
X103822007Y-108545275D01*
X103836190Y-108616903D01*
X104095342Y-109093944D01*
X104517323Y-109435499D01*
X104607032Y-109462050D01*
X104597732Y-109463900D01*
X104148221Y-109764254D01*
X103847867Y-110213765D01*
X103742397Y-110744000D01*
X94372735Y-110744000D01*
X94437200Y-110588370D01*
X94437200Y-108997750D01*
X94278450Y-108839000D01*
X92179140Y-108839000D01*
X91925140Y-108839000D01*
X89825830Y-108839000D01*
X89667080Y-108997750D01*
X89667080Y-110588370D01*
X89763753Y-110821759D01*
X89942382Y-111000387D01*
X90004072Y-111025940D01*
X89338150Y-111025940D01*
X89179400Y-111184690D01*
X88925400Y-111184690D01*
X88766650Y-111025940D01*
X88099083Y-111025940D01*
X88254161Y-110926150D01*
X88399151Y-110713950D01*
X88450160Y-110462060D01*
X88450160Y-106961940D01*
X88426394Y-106835630D01*
X89667080Y-106835630D01*
X89667080Y-108426250D01*
X89825830Y-108585000D01*
X91925140Y-108585000D01*
X91925140Y-106485690D01*
X92179140Y-106485690D01*
X92179140Y-108585000D01*
X94278450Y-108585000D01*
X94437200Y-108426250D01*
X94437200Y-106835630D01*
X94340527Y-106602241D01*
X94161898Y-106423613D01*
X93928509Y-106326940D01*
X92337890Y-106326940D01*
X92179140Y-106485690D01*
X91925140Y-106485690D01*
X91766390Y-106326940D01*
X90175771Y-106326940D01*
X89942382Y-106423613D01*
X89763753Y-106602241D01*
X89667080Y-106835630D01*
X88426394Y-106835630D01*
X88405882Y-106726623D01*
X88266810Y-106510499D01*
X88054610Y-106365509D01*
X87802720Y-106314500D01*
X84302600Y-106314500D01*
X84067283Y-106358778D01*
X83851159Y-106497850D01*
X83706169Y-106710050D01*
X83655160Y-106961940D01*
X78942000Y-106961940D01*
X78942000Y-105664000D01*
X103742397Y-105664000D01*
X103847867Y-106194235D01*
X104148221Y-106643746D01*
X104597732Y-106944100D01*
X104607032Y-106945950D01*
X104517323Y-106972501D01*
X104095342Y-107314056D01*
X103836190Y-107791097D01*
X103822007Y-107862725D01*
X103944661Y-108077000D01*
X105537000Y-108077000D01*
X105537000Y-108057000D01*
X105791000Y-108057000D01*
X105791000Y-108077000D01*
X107383339Y-108077000D01*
X107505993Y-107862725D01*
X107491810Y-107791097D01*
X107232658Y-107314056D01*
X106810677Y-106972501D01*
X106720968Y-106945950D01*
X106730268Y-106944100D01*
X107179779Y-106643746D01*
X107480133Y-106194235D01*
X107585603Y-105664000D01*
X107480133Y-105133765D01*
X107179779Y-104684254D01*
X106730268Y-104383900D01*
X106549000Y-104347844D01*
X106549000Y-103425279D01*
X106740441Y-103302090D01*
X106885431Y-103089890D01*
X106909102Y-102973000D01*
X107715995Y-102973000D01*
X107716000Y-102973001D01*
X107998484Y-102916810D01*
X108054675Y-102905633D01*
X108151742Y-102840775D01*
X111640803Y-102840775D01*
X111813233Y-103258086D01*
X111891000Y-103335989D01*
X111891000Y-108203995D01*
X111890999Y-108204000D01*
X111941922Y-108460000D01*
X111958367Y-108542675D01*
X112099637Y-108754101D01*
X112150210Y-108829790D01*
X116722208Y-113401787D01*
X116722210Y-113401790D01*
X117009325Y-113593633D01*
X117348000Y-113661000D01*
X129031995Y-113661000D01*
X129032000Y-113661001D01*
X129314484Y-113604810D01*
X129370675Y-113593633D01*
X129657790Y-113401790D01*
X129657791Y-113401789D01*
X130632829Y-112426750D01*
X131272000Y-112426750D01*
X131272000Y-112567310D01*
X131368673Y-112800699D01*
X131547302Y-112979327D01*
X131780691Y-113076000D01*
X132396250Y-113076000D01*
X132555000Y-112917250D01*
X132555000Y-112268000D01*
X132809000Y-112268000D01*
X132809000Y-112917250D01*
X132967750Y-113076000D01*
X133583309Y-113076000D01*
X133816698Y-112979327D01*
X133995327Y-112800699D01*
X134092000Y-112567310D01*
X134092000Y-112426750D01*
X133933250Y-112268000D01*
X132809000Y-112268000D01*
X132555000Y-112268000D01*
X131430750Y-112268000D01*
X131272000Y-112426750D01*
X130632829Y-112426750D01*
X131272000Y-111787579D01*
X131272000Y-111855250D01*
X131430750Y-112014000D01*
X132555000Y-112014000D01*
X132555000Y-111994000D01*
X132809000Y-111994000D01*
X132809000Y-112014000D01*
X133933250Y-112014000D01*
X134092000Y-111855250D01*
X134092000Y-111714690D01*
X134002194Y-111497878D01*
X134053431Y-111422890D01*
X134104440Y-111171000D01*
X134104440Y-110571000D01*
X134060162Y-110335683D01*
X133996322Y-110236472D01*
X134053431Y-110152890D01*
X134104440Y-109901000D01*
X134104440Y-109301000D01*
X134060162Y-109065683D01*
X133996322Y-108966472D01*
X134053431Y-108882890D01*
X134104440Y-108631000D01*
X134104440Y-108031000D01*
X134060162Y-107795683D01*
X133921090Y-107579559D01*
X133708890Y-107434569D01*
X133457000Y-107383560D01*
X131907000Y-107383560D01*
X131671683Y-107427838D01*
X131455559Y-107566910D01*
X131452764Y-107571000D01*
X130528145Y-107571000D01*
X130488993Y-107374170D01*
X130242874Y-107005826D01*
X129874530Y-106759707D01*
X129440039Y-106673281D01*
X129005548Y-106759707D01*
X128637204Y-107005826D01*
X128244994Y-107398036D01*
X127998875Y-107766380D01*
X127912449Y-108200871D01*
X127998875Y-108635362D01*
X128219800Y-108966000D01*
X127998875Y-109296638D01*
X127912449Y-109731129D01*
X127998875Y-110165620D01*
X128244994Y-110533964D01*
X128637204Y-110926174D01*
X129005548Y-111172293D01*
X129321317Y-111235104D01*
X128665420Y-111891000D01*
X117714579Y-111891000D01*
X113661000Y-107837420D01*
X113661000Y-103336276D01*
X113737645Y-103259765D01*
X113910803Y-102842756D01*
X113911197Y-102391225D01*
X113738767Y-101973914D01*
X113650757Y-101885750D01*
X115713000Y-101885750D01*
X115713000Y-102676310D01*
X115809673Y-102909699D01*
X115988302Y-103088327D01*
X116221691Y-103185000D01*
X117062250Y-103185000D01*
X117221000Y-103026250D01*
X117221000Y-101727000D01*
X117475000Y-101727000D01*
X117475000Y-103026250D01*
X117633750Y-103185000D01*
X118474309Y-103185000D01*
X118707698Y-103088327D01*
X118886327Y-102909699D01*
X118983000Y-102676310D01*
X118983000Y-101885750D01*
X118824250Y-101727000D01*
X117475000Y-101727000D01*
X117221000Y-101727000D01*
X115871750Y-101727000D01*
X115713000Y-101885750D01*
X113650757Y-101885750D01*
X113419765Y-101654355D01*
X113002756Y-101481197D01*
X112551225Y-101480803D01*
X112133914Y-101653233D01*
X111814355Y-101972235D01*
X111641197Y-102389244D01*
X111640803Y-102840775D01*
X108151742Y-102840775D01*
X108341790Y-102713790D01*
X109765787Y-101289792D01*
X109765790Y-101289790D01*
X109957633Y-101002675D01*
X109977665Y-100901969D01*
X110025001Y-100664000D01*
X110025000Y-100663995D01*
X110025000Y-100332038D01*
X110125317Y-100313162D01*
X110341441Y-100174090D01*
X110486431Y-99961890D01*
X110489081Y-99948803D01*
X110625910Y-100161441D01*
X110838110Y-100306431D01*
X111090000Y-100357440D01*
X112590000Y-100357440D01*
X112825317Y-100313162D01*
X113041441Y-100174090D01*
X113186431Y-99961890D01*
X113215164Y-99820000D01*
X115947053Y-99820000D01*
X116003519Y-99956657D01*
X116108545Y-100061867D01*
X115988302Y-100111673D01*
X115809673Y-100290301D01*
X115713000Y-100523690D01*
X115713000Y-101314250D01*
X115871750Y-101473000D01*
X117221000Y-101473000D01*
X117221000Y-101453000D01*
X117475000Y-101453000D01*
X117475000Y-101473000D01*
X118824250Y-101473000D01*
X118983000Y-101314250D01*
X118983000Y-100523690D01*
X118886327Y-100290301D01*
X118707698Y-100111673D01*
X118587749Y-100061988D01*
X118690914Y-99959003D01*
X118932724Y-99376659D01*
X118933275Y-98746107D01*
X118692481Y-98163343D01*
X118247003Y-97717086D01*
X117664659Y-97475276D01*
X117034107Y-97474725D01*
X116451343Y-97715519D01*
X116005086Y-98160997D01*
X115947367Y-98300000D01*
X113216742Y-98300000D01*
X113193162Y-98174683D01*
X113054090Y-97958559D01*
X112841890Y-97813569D01*
X112590000Y-97762560D01*
X111090000Y-97762560D01*
X110854683Y-97806838D01*
X110638559Y-97945910D01*
X110493569Y-98158110D01*
X110490919Y-98171197D01*
X110354090Y-97958559D01*
X110141890Y-97813569D01*
X109890000Y-97762560D01*
X108390000Y-97762560D01*
X108154683Y-97806838D01*
X107938559Y-97945910D01*
X107793569Y-98158110D01*
X107742560Y-98410000D01*
X107742560Y-99710000D01*
X107786838Y-99945317D01*
X107925910Y-100161441D01*
X108138110Y-100306431D01*
X108227823Y-100324598D01*
X107349420Y-101203000D01*
X106911038Y-101203000D01*
X106892162Y-101102683D01*
X106753090Y-100886559D01*
X106684994Y-100840031D01*
X106827327Y-100697698D01*
X106924000Y-100464309D01*
X106924000Y-99873750D01*
X106765250Y-99715000D01*
X105791000Y-99715000D01*
X105791000Y-99735000D01*
X105537000Y-99735000D01*
X105537000Y-99715000D01*
X104562750Y-99715000D01*
X104404000Y-99873750D01*
X104404000Y-100464309D01*
X104500673Y-100697698D01*
X104641910Y-100838936D01*
X104587559Y-100873910D01*
X104442569Y-101086110D01*
X104391560Y-101338000D01*
X104391560Y-102838000D01*
X104435838Y-103073317D01*
X104574910Y-103289441D01*
X104779000Y-103428890D01*
X104779000Y-104347844D01*
X104597732Y-104383900D01*
X104148221Y-104684254D01*
X103847867Y-105133765D01*
X103742397Y-105664000D01*
X78942000Y-105664000D01*
X78942000Y-98711691D01*
X104404000Y-98711691D01*
X104404000Y-99302250D01*
X104562750Y-99461000D01*
X105537000Y-99461000D01*
X105537000Y-98361750D01*
X105791000Y-98361750D01*
X105791000Y-99461000D01*
X106765250Y-99461000D01*
X106924000Y-99302250D01*
X106924000Y-98711691D01*
X106827327Y-98478302D01*
X106648699Y-98299673D01*
X106415310Y-98203000D01*
X105949750Y-98203000D01*
X105791000Y-98361750D01*
X105537000Y-98361750D01*
X105378250Y-98203000D01*
X104912690Y-98203000D01*
X104679301Y-98299673D01*
X104500673Y-98478302D01*
X104404000Y-98711691D01*
X78942000Y-98711691D01*
X78942000Y-96171691D01*
X133106000Y-96171691D01*
X133106000Y-96762250D01*
X133264750Y-96921000D01*
X134239000Y-96921000D01*
X134239000Y-95821750D01*
X134080250Y-95663000D01*
X133614690Y-95663000D01*
X133381301Y-95759673D01*
X133202673Y-95938302D01*
X133106000Y-96171691D01*
X78942000Y-96171691D01*
X78942000Y-91059000D01*
X78972000Y-91059000D01*
X78972000Y-92709000D01*
X79155943Y-93379744D01*
X79582567Y-93929039D01*
X80186922Y-94273259D01*
X80347134Y-94313757D01*
X80623000Y-94196262D01*
X80623000Y-91059000D01*
X80877000Y-91059000D01*
X80877000Y-94196262D01*
X81152866Y-94313757D01*
X81313078Y-94273259D01*
X81917433Y-93929039D01*
X82344057Y-93379744D01*
X82528000Y-92709000D01*
X82528000Y-91059000D01*
X80877000Y-91059000D01*
X80623000Y-91059000D01*
X78972000Y-91059000D01*
X78942000Y-91059000D01*
X78942000Y-89155000D01*
X78972000Y-89155000D01*
X78972000Y-90805000D01*
X80623000Y-90805000D01*
X80623000Y-87667738D01*
X80877000Y-87667738D01*
X80877000Y-90805000D01*
X82528000Y-90805000D01*
X82528000Y-90249727D01*
X106172000Y-90249727D01*
X106172000Y-91614273D01*
X106307342Y-92294684D01*
X106692764Y-92871509D01*
X107269589Y-93256931D01*
X107950000Y-93392273D01*
X108630411Y-93256931D01*
X109207236Y-92871509D01*
X109592658Y-92294684D01*
X109728000Y-91614273D01*
X109728000Y-90249727D01*
X109592658Y-89569316D01*
X109207236Y-88992491D01*
X108630411Y-88607069D01*
X107950000Y-88471727D01*
X107269589Y-88607069D01*
X106692764Y-88992491D01*
X106307342Y-89569316D01*
X106172000Y-90249727D01*
X82528000Y-90249727D01*
X82528000Y-89155000D01*
X82344057Y-88484256D01*
X81917433Y-87934961D01*
X81313078Y-87590741D01*
X81152866Y-87550243D01*
X80877000Y-87667738D01*
X80623000Y-87667738D01*
X80347134Y-87550243D01*
X80186922Y-87590741D01*
X79582567Y-87934961D01*
X79155943Y-88484256D01*
X78972000Y-89155000D01*
X78942000Y-89155000D01*
X78942000Y-86106000D01*
X115664655Y-86106000D01*
X115778729Y-86679489D01*
X116103585Y-87165670D01*
X116418366Y-87376000D01*
X116103585Y-87586330D01*
X115778729Y-88072511D01*
X115664655Y-88646000D01*
X115778729Y-89219489D01*
X116103585Y-89705670D01*
X116418366Y-89916000D01*
X116103585Y-90126330D01*
X115778729Y-90612511D01*
X115664655Y-91186000D01*
X115778729Y-91759489D01*
X116103585Y-92245670D01*
X116117913Y-92255243D01*
X116096683Y-92259238D01*
X115880559Y-92398310D01*
X115735569Y-92610510D01*
X115684560Y-92862400D01*
X115684560Y-94589600D01*
X115728838Y-94824917D01*
X115867910Y-95041041D01*
X116080110Y-95186031D01*
X116332000Y-95237040D01*
X118364000Y-95237040D01*
X118599317Y-95192762D01*
X118815441Y-95053690D01*
X118919297Y-94901691D01*
X135392000Y-94901691D01*
X135392000Y-95492250D01*
X135550750Y-95651000D01*
X136525000Y-95651000D01*
X136525000Y-94551750D01*
X136779000Y-94551750D01*
X136779000Y-95651000D01*
X137753250Y-95651000D01*
X137912000Y-95492250D01*
X137912000Y-94901691D01*
X137815327Y-94668302D01*
X137636699Y-94489673D01*
X137403310Y-94393000D01*
X136937750Y-94393000D01*
X136779000Y-94551750D01*
X136525000Y-94551750D01*
X136366250Y-94393000D01*
X135900690Y-94393000D01*
X135667301Y-94489673D01*
X135488673Y-94668302D01*
X135392000Y-94901691D01*
X118919297Y-94901691D01*
X118960431Y-94841490D01*
X119011440Y-94589600D01*
X119011440Y-94486000D01*
X120650000Y-94486000D01*
X120940839Y-94428148D01*
X121187401Y-94263401D01*
X122488802Y-92962000D01*
X126183537Y-92962000D01*
X126215673Y-92994192D01*
X126559201Y-93136838D01*
X126931167Y-93137162D01*
X127274943Y-92995117D01*
X127538192Y-92732327D01*
X127680838Y-92388799D01*
X127681162Y-92016833D01*
X127651894Y-91946000D01*
X128229403Y-91946000D01*
X128238883Y-91968943D01*
X128501673Y-92232192D01*
X128845201Y-92374838D01*
X129217167Y-92375162D01*
X129560943Y-92233117D01*
X129824192Y-91970327D01*
X129966838Y-91626799D01*
X129967162Y-91254833D01*
X129825117Y-90911057D01*
X129562327Y-90647808D01*
X129218799Y-90505162D01*
X129100578Y-90505059D01*
X129068839Y-90483852D01*
X128778000Y-90426000D01*
X118792648Y-90426000D01*
X118592415Y-90126330D01*
X118277634Y-89916000D01*
X118592415Y-89705670D01*
X118792648Y-89406000D01*
X128229403Y-89406000D01*
X128238883Y-89428943D01*
X128501673Y-89692192D01*
X128845201Y-89834838D01*
X129217167Y-89835162D01*
X129560943Y-89693117D01*
X129824192Y-89430327D01*
X129966838Y-89086799D01*
X129967162Y-88714833D01*
X129825117Y-88371057D01*
X129562327Y-88107808D01*
X129218799Y-87965162D01*
X129100578Y-87965059D01*
X129068839Y-87943852D01*
X128778000Y-87886000D01*
X118792648Y-87886000D01*
X118592415Y-87586330D01*
X118277634Y-87376000D01*
X118592415Y-87165670D01*
X118716642Y-86979750D01*
X131557000Y-86979750D01*
X131557000Y-87570309D01*
X131653673Y-87803698D01*
X131832301Y-87982327D01*
X132065690Y-88079000D01*
X132556250Y-88079000D01*
X132715000Y-87920250D01*
X132715000Y-86821000D01*
X132969000Y-86821000D01*
X132969000Y-87920250D01*
X133127750Y-88079000D01*
X133618310Y-88079000D01*
X133851699Y-87982327D01*
X134030327Y-87803698D01*
X134127000Y-87570309D01*
X134127000Y-86979750D01*
X133968250Y-86821000D01*
X132969000Y-86821000D01*
X132715000Y-86821000D01*
X131715750Y-86821000D01*
X131557000Y-86979750D01*
X118716642Y-86979750D01*
X118917271Y-86679489D01*
X119031345Y-86106000D01*
X118917271Y-85532511D01*
X118592415Y-85046330D01*
X118282931Y-84839539D01*
X118698732Y-84468036D01*
X118952709Y-83940791D01*
X118955358Y-83925026D01*
X118834217Y-83693000D01*
X117475000Y-83693000D01*
X117475000Y-83713000D01*
X117221000Y-83713000D01*
X117221000Y-83693000D01*
X115861783Y-83693000D01*
X115740642Y-83925026D01*
X115743291Y-83940791D01*
X115997268Y-84468036D01*
X116413069Y-84839539D01*
X116103585Y-85046330D01*
X115778729Y-85532511D01*
X115664655Y-86106000D01*
X78942000Y-86106000D01*
X78942000Y-82485042D01*
X79192323Y-82859677D01*
X79917085Y-83343947D01*
X80772000Y-83514000D01*
X81626915Y-83343947D01*
X82351677Y-82859677D01*
X82835947Y-82134915D01*
X82985109Y-81385026D01*
X115740642Y-81385026D01*
X115743291Y-81400791D01*
X115997268Y-81928036D01*
X116409108Y-82296000D01*
X115997268Y-82663964D01*
X115743291Y-83191209D01*
X115740642Y-83206974D01*
X115861783Y-83439000D01*
X117221000Y-83439000D01*
X117221000Y-81153000D01*
X117475000Y-81153000D01*
X117475000Y-83439000D01*
X118834217Y-83439000D01*
X118955358Y-83206974D01*
X118952709Y-83191209D01*
X118698732Y-82663964D01*
X118286892Y-82296000D01*
X118698732Y-81928036D01*
X118952709Y-81400791D01*
X118955358Y-81385026D01*
X118834217Y-81153000D01*
X117475000Y-81153000D01*
X117221000Y-81153000D01*
X115861783Y-81153000D01*
X115740642Y-81385026D01*
X82985109Y-81385026D01*
X83006000Y-81280000D01*
X82884062Y-80666974D01*
X115740642Y-80666974D01*
X115861783Y-80899000D01*
X117221000Y-80899000D01*
X117221000Y-79685076D01*
X117475000Y-79685076D01*
X117475000Y-80899000D01*
X118834217Y-80899000D01*
X118955358Y-80666974D01*
X118952709Y-80651209D01*
X118698732Y-80123964D01*
X118262320Y-79734046D01*
X117709913Y-79540816D01*
X117475000Y-79685076D01*
X117221000Y-79685076D01*
X116986087Y-79540816D01*
X116433680Y-79734046D01*
X115997268Y-80123964D01*
X115743291Y-80651209D01*
X115740642Y-80666974D01*
X82884062Y-80666974D01*
X82835947Y-80425085D01*
X82351677Y-79700323D01*
X81977042Y-79450000D01*
X131523607Y-79450000D01*
X131374559Y-79545910D01*
G36*
X153931620Y-79640854D02*
X153556173Y-80015647D01*
X153352732Y-80505587D01*
X153352269Y-81036086D01*
X153554854Y-81526380D01*
X153929647Y-81901827D01*
X154419587Y-82105268D01*
X154950086Y-82105731D01*
X155440380Y-81903146D01*
X155637681Y-81706188D01*
X161551417Y-81706188D01*
X161613071Y-81941800D01*
X162113480Y-82117927D01*
X162643199Y-82089148D01*
X162998929Y-81941800D01*
X163060583Y-81706188D01*
X162306000Y-80951605D01*
X161551417Y-81706188D01*
X155637681Y-81706188D01*
X155815827Y-81528353D01*
X156019268Y-81038413D01*
X156019668Y-80579480D01*
X160960073Y-80579480D01*
X160988852Y-81109199D01*
X161136200Y-81464929D01*
X161371812Y-81526583D01*
X162126395Y-80772000D01*
X161371812Y-80017417D01*
X161136200Y-80079071D01*
X160960073Y-80579480D01*
X156019668Y-80579480D01*
X156019731Y-80507914D01*
X155817146Y-80017620D01*
X155442353Y-79642173D01*
X154979549Y-79450000D01*
X162058109Y-79450000D01*
X161968801Y-79454852D01*
X161613071Y-79602200D01*
X161551417Y-79837812D01*
X162306000Y-80592395D01*
X163060583Y-79837812D01*
X162998929Y-79602200D01*
X162566501Y-79450000D01*
X164402958Y-79450000D01*
X164028323Y-79700323D01*
X163590395Y-80355729D01*
X163475800Y-80079071D01*
X163240188Y-80017417D01*
X162485605Y-80772000D01*
X163240188Y-81526583D01*
X163414001Y-81481100D01*
X163544053Y-82134915D01*
X164028323Y-82859677D01*
X164753085Y-83343947D01*
X165608000Y-83514000D01*
X166462915Y-83343947D01*
X167187677Y-82859677D01*
X167438000Y-82485042D01*
X167438000Y-114618958D01*
X167187677Y-114244323D01*
X166462915Y-113760053D01*
X165608000Y-113590000D01*
X164753085Y-113760053D01*
X164028323Y-114244323D01*
X163544053Y-114969085D01*
X163374000Y-115824000D01*
X163544053Y-116678915D01*
X164028323Y-117403677D01*
X164402958Y-117654000D01*
X161887811Y-117654000D01*
X162280415Y-117391670D01*
X162605271Y-116905489D01*
X162719345Y-116332000D01*
X162605271Y-115758511D01*
X162280415Y-115272330D01*
X161965634Y-115062000D01*
X162280415Y-114851670D01*
X162605271Y-114365489D01*
X162719345Y-113792000D01*
X162605271Y-113218511D01*
X162280415Y-112732330D01*
X162258220Y-112717500D01*
X162411699Y-112653927D01*
X162590327Y-112475298D01*
X162687000Y-112241909D01*
X162687000Y-111537750D01*
X162528250Y-111379000D01*
X161163000Y-111379000D01*
X161163000Y-111399000D01*
X160909000Y-111399000D01*
X160909000Y-111379000D01*
X159543750Y-111379000D01*
X159385000Y-111537750D01*
X159385000Y-112241909D01*
X159481673Y-112475298D01*
X159660301Y-112653927D01*
X159813780Y-112717500D01*
X159791585Y-112732330D01*
X159591352Y-113032000D01*
X159318802Y-113032000D01*
X159002000Y-112715198D01*
X159002000Y-110262091D01*
X159385000Y-110262091D01*
X159385000Y-110966250D01*
X159543750Y-111125000D01*
X160909000Y-111125000D01*
X160909000Y-109912150D01*
X161163000Y-109912150D01*
X161163000Y-111125000D01*
X162528250Y-111125000D01*
X162687000Y-110966250D01*
X162687000Y-110262091D01*
X162590327Y-110028702D01*
X162411699Y-109850073D01*
X162178310Y-109753400D01*
X161321750Y-109753400D01*
X161163000Y-109912150D01*
X160909000Y-109912150D01*
X160750250Y-109753400D01*
X159893690Y-109753400D01*
X159660301Y-109850073D01*
X159481673Y-110028702D01*
X159385000Y-110262091D01*
X159002000Y-110262091D01*
X159002000Y-108712000D01*
X158944148Y-108421161D01*
X158944148Y-108421160D01*
X158779401Y-108174599D01*
X157142552Y-106537750D01*
X163307000Y-106537750D01*
X163307000Y-107128309D01*
X163403673Y-107361698D01*
X163582301Y-107540327D01*
X163815690Y-107637000D01*
X164306250Y-107637000D01*
X164465000Y-107478250D01*
X164465000Y-106379000D01*
X164719000Y-106379000D01*
X164719000Y-107478250D01*
X164877750Y-107637000D01*
X165368310Y-107637000D01*
X165601699Y-107540327D01*
X165780327Y-107361698D01*
X165877000Y-107128309D01*
X165877000Y-106537750D01*
X165718250Y-106379000D01*
X164719000Y-106379000D01*
X164465000Y-106379000D01*
X163465750Y-106379000D01*
X163307000Y-106537750D01*
X157142552Y-106537750D01*
X155477401Y-104872599D01*
X155360388Y-104794414D01*
X156847865Y-103306937D01*
X156876838Y-103460917D01*
X157015910Y-103677041D01*
X157228110Y-103822031D01*
X157480000Y-103873040D01*
X159512000Y-103873040D01*
X159747317Y-103828762D01*
X159963441Y-103689690D01*
X160108431Y-103477490D01*
X160159440Y-103225600D01*
X160159440Y-101498400D01*
X160115162Y-101263083D01*
X159976090Y-101046959D01*
X159763890Y-100901969D01*
X159722561Y-100893600D01*
X159740415Y-100881670D01*
X160065271Y-100395489D01*
X160179345Y-99822000D01*
X160065271Y-99248511D01*
X159740415Y-98762330D01*
X159425634Y-98552000D01*
X159740415Y-98341670D01*
X159940648Y-98042000D01*
X163191053Y-98042000D01*
X163247519Y-98178657D01*
X163345029Y-98276337D01*
X163140559Y-98407910D01*
X162995569Y-98620110D01*
X162944560Y-98872000D01*
X162944560Y-100772000D01*
X162988838Y-101007317D01*
X163127910Y-101223441D01*
X163340110Y-101368431D01*
X163592000Y-101419440D01*
X163832000Y-101419440D01*
X163832000Y-102175258D01*
X163706683Y-102198838D01*
X163490559Y-102337910D01*
X163345569Y-102550110D01*
X163294560Y-102802000D01*
X163294560Y-104302000D01*
X163338838Y-104537317D01*
X163477910Y-104753441D01*
X163690110Y-104898431D01*
X163723490Y-104905191D01*
X163582301Y-104963673D01*
X163403673Y-105142302D01*
X163307000Y-105375691D01*
X163307000Y-105966250D01*
X163465750Y-106125000D01*
X164465000Y-106125000D01*
X164465000Y-106105000D01*
X164719000Y-106105000D01*
X164719000Y-106125000D01*
X165718250Y-106125000D01*
X165877000Y-105966250D01*
X165877000Y-105375691D01*
X165780327Y-105142302D01*
X165601699Y-104963673D01*
X165465713Y-104907346D01*
X165477317Y-104905162D01*
X165693441Y-104766090D01*
X165838431Y-104553890D01*
X165889440Y-104302000D01*
X165889440Y-102802000D01*
X165845162Y-102566683D01*
X165706090Y-102350559D01*
X165493890Y-102205569D01*
X165352000Y-102176836D01*
X165352000Y-101419440D01*
X165592000Y-101419440D01*
X165827317Y-101375162D01*
X166043441Y-101236090D01*
X166188431Y-101023890D01*
X166239440Y-100772000D01*
X166239440Y-98872000D01*
X166195162Y-98636683D01*
X166056090Y-98420559D01*
X165843890Y-98275569D01*
X165840808Y-98274945D01*
X165934914Y-98181003D01*
X166176724Y-97598659D01*
X166177275Y-96968107D01*
X165936481Y-96385343D01*
X165491003Y-95939086D01*
X164908659Y-95697276D01*
X164278107Y-95696725D01*
X163695343Y-95937519D01*
X163249086Y-96382997D01*
X163191367Y-96522000D01*
X159940648Y-96522000D01*
X159740415Y-96222330D01*
X159425634Y-96012000D01*
X159740415Y-95801670D01*
X159940648Y-95502000D01*
X160274000Y-95502000D01*
X160564839Y-95444148D01*
X160811401Y-95279401D01*
X162843401Y-93247401D01*
X163008148Y-93000839D01*
X163066000Y-92710000D01*
X163066000Y-86977536D01*
X163435827Y-86608353D01*
X163639268Y-86118413D01*
X163639731Y-85587914D01*
X163437146Y-85097620D01*
X163062353Y-84722173D01*
X162572413Y-84518732D01*
X162041914Y-84518269D01*
X161551620Y-84720854D01*
X161176173Y-85095647D01*
X160972732Y-85585587D01*
X160972269Y-86116086D01*
X161174854Y-86606380D01*
X161546000Y-86978174D01*
X161546000Y-92395198D01*
X159959198Y-93982000D01*
X159940648Y-93982000D01*
X159740415Y-93682330D01*
X159430931Y-93475539D01*
X159846732Y-93104036D01*
X160100709Y-92576791D01*
X160103358Y-92561026D01*
X159982217Y-92329000D01*
X158623000Y-92329000D01*
X158623000Y-92349000D01*
X158369000Y-92349000D01*
X158369000Y-92329000D01*
X157009783Y-92329000D01*
X156888642Y-92561026D01*
X156891291Y-92576791D01*
X157145268Y-93104036D01*
X157561069Y-93475539D01*
X157251585Y-93682330D01*
X156926729Y-94168511D01*
X156812655Y-94742000D01*
X156926729Y-95315489D01*
X157251585Y-95801670D01*
X157566366Y-96012000D01*
X157251585Y-96222330D01*
X157051352Y-96522000D01*
X155702000Y-96522000D01*
X155411161Y-96579852D01*
X155164599Y-96744599D01*
X151825198Y-100084000D01*
X151239440Y-100084000D01*
X151239440Y-99769000D01*
X151215056Y-99639411D01*
X151239440Y-99519000D01*
X151239440Y-98969000D01*
X151215056Y-98839411D01*
X151239440Y-98719000D01*
X151239440Y-98169000D01*
X151219550Y-98063295D01*
X151227000Y-98045310D01*
X151227000Y-97929750D01*
X151130599Y-97833349D01*
X151056090Y-97717559D01*
X150948603Y-97644116D01*
X151043441Y-97583090D01*
X151132495Y-97452755D01*
X151227000Y-97358250D01*
X151227000Y-97242690D01*
X151218532Y-97222247D01*
X151239440Y-97119000D01*
X151239440Y-96569000D01*
X151215056Y-96439411D01*
X151239440Y-96319000D01*
X151239440Y-95769000D01*
X151215056Y-95639411D01*
X151239440Y-95519000D01*
X151239440Y-94969000D01*
X151195162Y-94733683D01*
X151056090Y-94517559D01*
X150843890Y-94372569D01*
X150592000Y-94321560D01*
X149264440Y-94321560D01*
X149264440Y-92994000D01*
X149220162Y-92758683D01*
X149081090Y-92542559D01*
X148868890Y-92397569D01*
X148617000Y-92346560D01*
X148067000Y-92346560D01*
X147979842Y-92362960D01*
X148221680Y-92121122D01*
X148267167Y-92121162D01*
X148610943Y-91979117D01*
X148874192Y-91716327D01*
X149016838Y-91372799D01*
X149017162Y-91000833D01*
X148875117Y-90657057D01*
X148842000Y-90623882D01*
X148842000Y-90484802D01*
X149635401Y-89691401D01*
X149655045Y-89662000D01*
X156812655Y-89662000D01*
X156926729Y-90235489D01*
X157251585Y-90721670D01*
X157561069Y-90928461D01*
X157145268Y-91299964D01*
X156891291Y-91827209D01*
X156888642Y-91842974D01*
X157009783Y-92075000D01*
X158369000Y-92075000D01*
X158369000Y-92055000D01*
X158623000Y-92055000D01*
X158623000Y-92075000D01*
X159982217Y-92075000D01*
X160103358Y-91842974D01*
X160100709Y-91827209D01*
X159846732Y-91299964D01*
X159430931Y-90928461D01*
X159740415Y-90721670D01*
X160065271Y-90235489D01*
X160179345Y-89662000D01*
X160065271Y-89088511D01*
X159740415Y-88602330D01*
X159254234Y-88277474D01*
X158680745Y-88163400D01*
X158311255Y-88163400D01*
X157737766Y-88277474D01*
X157251585Y-88602330D01*
X156926729Y-89088511D01*
X156812655Y-89662000D01*
X149655045Y-89662000D01*
X149686156Y-89615440D01*
X149748000Y-89615440D01*
X149983317Y-89571162D01*
X150199441Y-89432090D01*
X150344431Y-89219890D01*
X150395440Y-88968000D01*
X150395440Y-87468000D01*
X150351162Y-87232683D01*
X150212090Y-87016559D01*
X149999890Y-86871569D01*
X149966510Y-86864809D01*
X150107699Y-86806327D01*
X150127837Y-86786188D01*
X153931417Y-86786188D01*
X153993071Y-87021800D01*
X154493480Y-87197927D01*
X155023199Y-87169148D01*
X155378929Y-87021800D01*
X155440583Y-86786188D01*
X154686000Y-86031605D01*
X153931417Y-86786188D01*
X150127837Y-86786188D01*
X150286327Y-86627698D01*
X150383000Y-86394309D01*
X150383000Y-85803750D01*
X150238730Y-85659480D01*
X153340073Y-85659480D01*
X153368852Y-86189199D01*
X153516200Y-86544929D01*
X153751812Y-86606583D01*
X154506395Y-85852000D01*
X154865605Y-85852000D01*
X155620188Y-86606583D01*
X155855800Y-86544929D01*
X156031927Y-86044520D01*
X156003148Y-85514801D01*
X155855800Y-85159071D01*
X155620188Y-85097417D01*
X154865605Y-85852000D01*
X154506395Y-85852000D01*
X153751812Y-85097417D01*
X153516200Y-85159071D01*
X153340073Y-85659480D01*
X150238730Y-85659480D01*
X150224250Y-85645000D01*
X149225000Y-85645000D01*
X149225000Y-85665000D01*
X148971000Y-85665000D01*
X148971000Y-85645000D01*
X147193000Y-85645000D01*
X147193000Y-85665000D01*
X146939000Y-85665000D01*
X146939000Y-85645000D01*
X146919000Y-85645000D01*
X146919000Y-85391000D01*
X146939000Y-85391000D01*
X146939000Y-84291750D01*
X147193000Y-84291750D01*
X147193000Y-85391000D01*
X148971000Y-85391000D01*
X148971000Y-84291750D01*
X149225000Y-84291750D01*
X149225000Y-85391000D01*
X150224250Y-85391000D01*
X150383000Y-85232250D01*
X150383000Y-84917812D01*
X153931417Y-84917812D01*
X154686000Y-85672395D01*
X155440583Y-84917812D01*
X155378929Y-84682200D01*
X154878520Y-84506073D01*
X154348801Y-84534852D01*
X153993071Y-84682200D01*
X153931417Y-84917812D01*
X150383000Y-84917812D01*
X150383000Y-84641691D01*
X150286327Y-84408302D01*
X150107699Y-84229673D01*
X149874310Y-84133000D01*
X149383750Y-84133000D01*
X149225000Y-84291750D01*
X148971000Y-84291750D01*
X148812250Y-84133000D01*
X148321690Y-84133000D01*
X148088301Y-84229673D01*
X148082000Y-84235974D01*
X148075699Y-84229673D01*
X147842310Y-84133000D01*
X147351750Y-84133000D01*
X147193000Y-84291750D01*
X146939000Y-84291750D01*
X146780250Y-84133000D01*
X146289690Y-84133000D01*
X146056301Y-84229673D01*
X145877673Y-84408302D01*
X145872231Y-84421440D01*
X145869090Y-84416559D01*
X145698547Y-84300032D01*
X145714838Y-84260799D01*
X145715162Y-83888833D01*
X145573117Y-83545057D01*
X145310327Y-83281808D01*
X144966799Y-83139162D01*
X144594833Y-83138838D01*
X144251057Y-83280883D01*
X143987808Y-83543673D01*
X143845162Y-83887201D01*
X143844838Y-84259167D01*
X143862409Y-84301693D01*
X143703559Y-84403910D01*
X143683340Y-84433501D01*
X143608090Y-84316559D01*
X143504000Y-84245437D01*
X143504000Y-82320239D01*
X143693778Y-82193433D01*
X144051670Y-81657810D01*
X144177345Y-81026000D01*
X144051670Y-80394190D01*
X143693778Y-79858567D01*
X143158155Y-79500675D01*
X142903395Y-79450000D01*
X154393523Y-79450000D01*
X153931620Y-79640854D01*
X153931620Y-79640854D01*
G37*
X153931620Y-79640854D02*
X153556173Y-80015647D01*
X153352732Y-80505587D01*
X153352269Y-81036086D01*
X153554854Y-81526380D01*
X153929647Y-81901827D01*
X154419587Y-82105268D01*
X154950086Y-82105731D01*
X155440380Y-81903146D01*
X155637681Y-81706188D01*
X161551417Y-81706188D01*
X161613071Y-81941800D01*
X162113480Y-82117927D01*
X162643199Y-82089148D01*
X162998929Y-81941800D01*
X163060583Y-81706188D01*
X162306000Y-80951605D01*
X161551417Y-81706188D01*
X155637681Y-81706188D01*
X155815827Y-81528353D01*
X156019268Y-81038413D01*
X156019668Y-80579480D01*
X160960073Y-80579480D01*
X160988852Y-81109199D01*
X161136200Y-81464929D01*
X161371812Y-81526583D01*
X162126395Y-80772000D01*
X161371812Y-80017417D01*
X161136200Y-80079071D01*
X160960073Y-80579480D01*
X156019668Y-80579480D01*
X156019731Y-80507914D01*
X155817146Y-80017620D01*
X155442353Y-79642173D01*
X154979549Y-79450000D01*
X162058109Y-79450000D01*
X161968801Y-79454852D01*
X161613071Y-79602200D01*
X161551417Y-79837812D01*
X162306000Y-80592395D01*
X163060583Y-79837812D01*
X162998929Y-79602200D01*
X162566501Y-79450000D01*
X164402958Y-79450000D01*
X164028323Y-79700323D01*
X163590395Y-80355729D01*
X163475800Y-80079071D01*
X163240188Y-80017417D01*
X162485605Y-80772000D01*
X163240188Y-81526583D01*
X163414001Y-81481100D01*
X163544053Y-82134915D01*
X164028323Y-82859677D01*
X164753085Y-83343947D01*
X165608000Y-83514000D01*
X166462915Y-83343947D01*
X167187677Y-82859677D01*
X167438000Y-82485042D01*
X167438000Y-114618958D01*
X167187677Y-114244323D01*
X166462915Y-113760053D01*
X165608000Y-113590000D01*
X164753085Y-113760053D01*
X164028323Y-114244323D01*
X163544053Y-114969085D01*
X163374000Y-115824000D01*
X163544053Y-116678915D01*
X164028323Y-117403677D01*
X164402958Y-117654000D01*
X161887811Y-117654000D01*
X162280415Y-117391670D01*
X162605271Y-116905489D01*
X162719345Y-116332000D01*
X162605271Y-115758511D01*
X162280415Y-115272330D01*
X161965634Y-115062000D01*
X162280415Y-114851670D01*
X162605271Y-114365489D01*
X162719345Y-113792000D01*
X162605271Y-113218511D01*
X162280415Y-112732330D01*
X162258220Y-112717500D01*
X162411699Y-112653927D01*
X162590327Y-112475298D01*
X162687000Y-112241909D01*
X162687000Y-111537750D01*
X162528250Y-111379000D01*
X161163000Y-111379000D01*
X161163000Y-111399000D01*
X160909000Y-111399000D01*
X160909000Y-111379000D01*
X159543750Y-111379000D01*
X159385000Y-111537750D01*
X159385000Y-112241909D01*
X159481673Y-112475298D01*
X159660301Y-112653927D01*
X159813780Y-112717500D01*
X159791585Y-112732330D01*
X159591352Y-113032000D01*
X159318802Y-113032000D01*
X159002000Y-112715198D01*
X159002000Y-110262091D01*
X159385000Y-110262091D01*
X159385000Y-110966250D01*
X159543750Y-111125000D01*
X160909000Y-111125000D01*
X160909000Y-109912150D01*
X161163000Y-109912150D01*
X161163000Y-111125000D01*
X162528250Y-111125000D01*
X162687000Y-110966250D01*
X162687000Y-110262091D01*
X162590327Y-110028702D01*
X162411699Y-109850073D01*
X162178310Y-109753400D01*
X161321750Y-109753400D01*
X161163000Y-109912150D01*
X160909000Y-109912150D01*
X160750250Y-109753400D01*
X159893690Y-109753400D01*
X159660301Y-109850073D01*
X159481673Y-110028702D01*
X159385000Y-110262091D01*
X159002000Y-110262091D01*
X159002000Y-108712000D01*
X158944148Y-108421161D01*
X158944148Y-108421160D01*
X158779401Y-108174599D01*
X157142552Y-106537750D01*
X163307000Y-106537750D01*
X163307000Y-107128309D01*
X163403673Y-107361698D01*
X163582301Y-107540327D01*
X163815690Y-107637000D01*
X164306250Y-107637000D01*
X164465000Y-107478250D01*
X164465000Y-106379000D01*
X164719000Y-106379000D01*
X164719000Y-107478250D01*
X164877750Y-107637000D01*
X165368310Y-107637000D01*
X165601699Y-107540327D01*
X165780327Y-107361698D01*
X165877000Y-107128309D01*
X165877000Y-106537750D01*
X165718250Y-106379000D01*
X164719000Y-106379000D01*
X164465000Y-106379000D01*
X163465750Y-106379000D01*
X163307000Y-106537750D01*
X157142552Y-106537750D01*
X155477401Y-104872599D01*
X155360388Y-104794414D01*
X156847865Y-103306937D01*
X156876838Y-103460917D01*
X157015910Y-103677041D01*
X157228110Y-103822031D01*
X157480000Y-103873040D01*
X159512000Y-103873040D01*
X159747317Y-103828762D01*
X159963441Y-103689690D01*
X160108431Y-103477490D01*
X160159440Y-103225600D01*
X160159440Y-101498400D01*
X160115162Y-101263083D01*
X159976090Y-101046959D01*
X159763890Y-100901969D01*
X159722561Y-100893600D01*
X159740415Y-100881670D01*
X160065271Y-100395489D01*
X160179345Y-99822000D01*
X160065271Y-99248511D01*
X159740415Y-98762330D01*
X159425634Y-98552000D01*
X159740415Y-98341670D01*
X159940648Y-98042000D01*
X163191053Y-98042000D01*
X163247519Y-98178657D01*
X163345029Y-98276337D01*
X163140559Y-98407910D01*
X162995569Y-98620110D01*
X162944560Y-98872000D01*
X162944560Y-100772000D01*
X162988838Y-101007317D01*
X163127910Y-101223441D01*
X163340110Y-101368431D01*
X163592000Y-101419440D01*
X163832000Y-101419440D01*
X163832000Y-102175258D01*
X163706683Y-102198838D01*
X163490559Y-102337910D01*
X163345569Y-102550110D01*
X163294560Y-102802000D01*
X163294560Y-104302000D01*
X163338838Y-104537317D01*
X163477910Y-104753441D01*
X163690110Y-104898431D01*
X163723490Y-104905191D01*
X163582301Y-104963673D01*
X163403673Y-105142302D01*
X163307000Y-105375691D01*
X163307000Y-105966250D01*
X163465750Y-106125000D01*
X164465000Y-106125000D01*
X164465000Y-106105000D01*
X164719000Y-106105000D01*
X164719000Y-106125000D01*
X165718250Y-106125000D01*
X165877000Y-105966250D01*
X165877000Y-105375691D01*
X165780327Y-105142302D01*
X165601699Y-104963673D01*
X165465713Y-104907346D01*
X165477317Y-104905162D01*
X165693441Y-104766090D01*
X165838431Y-104553890D01*
X165889440Y-104302000D01*
X165889440Y-102802000D01*
X165845162Y-102566683D01*
X165706090Y-102350559D01*
X165493890Y-102205569D01*
X165352000Y-102176836D01*
X165352000Y-101419440D01*
X165592000Y-101419440D01*
X165827317Y-101375162D01*
X166043441Y-101236090D01*
X166188431Y-101023890D01*
X166239440Y-100772000D01*
X166239440Y-98872000D01*
X166195162Y-98636683D01*
X166056090Y-98420559D01*
X165843890Y-98275569D01*
X165840808Y-98274945D01*
X165934914Y-98181003D01*
X166176724Y-97598659D01*
X166177275Y-96968107D01*
X165936481Y-96385343D01*
X165491003Y-95939086D01*
X164908659Y-95697276D01*
X164278107Y-95696725D01*
X163695343Y-95937519D01*
X163249086Y-96382997D01*
X163191367Y-96522000D01*
X159940648Y-96522000D01*
X159740415Y-96222330D01*
X159425634Y-96012000D01*
X159740415Y-95801670D01*
X159940648Y-95502000D01*
X160274000Y-95502000D01*
X160564839Y-95444148D01*
X160811401Y-95279401D01*
X162843401Y-93247401D01*
X163008148Y-93000839D01*
X163066000Y-92710000D01*
X163066000Y-86977536D01*
X163435827Y-86608353D01*
X163639268Y-86118413D01*
X163639731Y-85587914D01*
X163437146Y-85097620D01*
X163062353Y-84722173D01*
X162572413Y-84518732D01*
X162041914Y-84518269D01*
X161551620Y-84720854D01*
X161176173Y-85095647D01*
X160972732Y-85585587D01*
X160972269Y-86116086D01*
X161174854Y-86606380D01*
X161546000Y-86978174D01*
X161546000Y-92395198D01*
X159959198Y-93982000D01*
X159940648Y-93982000D01*
X159740415Y-93682330D01*
X159430931Y-93475539D01*
X159846732Y-93104036D01*
X160100709Y-92576791D01*
X160103358Y-92561026D01*
X159982217Y-92329000D01*
X158623000Y-92329000D01*
X158623000Y-92349000D01*
X158369000Y-92349000D01*
X158369000Y-92329000D01*
X157009783Y-92329000D01*
X156888642Y-92561026D01*
X156891291Y-92576791D01*
X157145268Y-93104036D01*
X157561069Y-93475539D01*
X157251585Y-93682330D01*
X156926729Y-94168511D01*
X156812655Y-94742000D01*
X156926729Y-95315489D01*
X157251585Y-95801670D01*
X157566366Y-96012000D01*
X157251585Y-96222330D01*
X157051352Y-96522000D01*
X155702000Y-96522000D01*
X155411161Y-96579852D01*
X155164599Y-96744599D01*
X151825198Y-100084000D01*
X151239440Y-100084000D01*
X151239440Y-99769000D01*
X151215056Y-99639411D01*
X151239440Y-99519000D01*
X151239440Y-98969000D01*
X151215056Y-98839411D01*
X151239440Y-98719000D01*
X151239440Y-98169000D01*
X151219550Y-98063295D01*
X151227000Y-98045310D01*
X151227000Y-97929750D01*
X151130599Y-97833349D01*
X151056090Y-97717559D01*
X150948603Y-97644116D01*
X151043441Y-97583090D01*
X151132495Y-97452755D01*
X151227000Y-97358250D01*
X151227000Y-97242690D01*
X151218532Y-97222247D01*
X151239440Y-97119000D01*
X151239440Y-96569000D01*
X151215056Y-96439411D01*
X151239440Y-96319000D01*
X151239440Y-95769000D01*
X151215056Y-95639411D01*
X151239440Y-95519000D01*
X151239440Y-94969000D01*
X151195162Y-94733683D01*
X151056090Y-94517559D01*
X150843890Y-94372569D01*
X150592000Y-94321560D01*
X149264440Y-94321560D01*
X149264440Y-92994000D01*
X149220162Y-92758683D01*
X149081090Y-92542559D01*
X148868890Y-92397569D01*
X148617000Y-92346560D01*
X148067000Y-92346560D01*
X147979842Y-92362960D01*
X148221680Y-92121122D01*
X148267167Y-92121162D01*
X148610943Y-91979117D01*
X148874192Y-91716327D01*
X149016838Y-91372799D01*
X149017162Y-91000833D01*
X148875117Y-90657057D01*
X148842000Y-90623882D01*
X148842000Y-90484802D01*
X149635401Y-89691401D01*
X149655045Y-89662000D01*
X156812655Y-89662000D01*
X156926729Y-90235489D01*
X157251585Y-90721670D01*
X157561069Y-90928461D01*
X157145268Y-91299964D01*
X156891291Y-91827209D01*
X156888642Y-91842974D01*
X157009783Y-92075000D01*
X158369000Y-92075000D01*
X158369000Y-92055000D01*
X158623000Y-92055000D01*
X158623000Y-92075000D01*
X159982217Y-92075000D01*
X160103358Y-91842974D01*
X160100709Y-91827209D01*
X159846732Y-91299964D01*
X159430931Y-90928461D01*
X159740415Y-90721670D01*
X160065271Y-90235489D01*
X160179345Y-89662000D01*
X160065271Y-89088511D01*
X159740415Y-88602330D01*
X159254234Y-88277474D01*
X158680745Y-88163400D01*
X158311255Y-88163400D01*
X157737766Y-88277474D01*
X157251585Y-88602330D01*
X156926729Y-89088511D01*
X156812655Y-89662000D01*
X149655045Y-89662000D01*
X149686156Y-89615440D01*
X149748000Y-89615440D01*
X149983317Y-89571162D01*
X150199441Y-89432090D01*
X150344431Y-89219890D01*
X150395440Y-88968000D01*
X150395440Y-87468000D01*
X150351162Y-87232683D01*
X150212090Y-87016559D01*
X149999890Y-86871569D01*
X149966510Y-86864809D01*
X150107699Y-86806327D01*
X150127837Y-86786188D01*
X153931417Y-86786188D01*
X153993071Y-87021800D01*
X154493480Y-87197927D01*
X155023199Y-87169148D01*
X155378929Y-87021800D01*
X155440583Y-86786188D01*
X154686000Y-86031605D01*
X153931417Y-86786188D01*
X150127837Y-86786188D01*
X150286327Y-86627698D01*
X150383000Y-86394309D01*
X150383000Y-85803750D01*
X150238730Y-85659480D01*
X153340073Y-85659480D01*
X153368852Y-86189199D01*
X153516200Y-86544929D01*
X153751812Y-86606583D01*
X154506395Y-85852000D01*
X154865605Y-85852000D01*
X155620188Y-86606583D01*
X155855800Y-86544929D01*
X156031927Y-86044520D01*
X156003148Y-85514801D01*
X155855800Y-85159071D01*
X155620188Y-85097417D01*
X154865605Y-85852000D01*
X154506395Y-85852000D01*
X153751812Y-85097417D01*
X153516200Y-85159071D01*
X153340073Y-85659480D01*
X150238730Y-85659480D01*
X150224250Y-85645000D01*
X149225000Y-85645000D01*
X149225000Y-85665000D01*
X148971000Y-85665000D01*
X148971000Y-85645000D01*
X147193000Y-85645000D01*
X147193000Y-85665000D01*
X146939000Y-85665000D01*
X146939000Y-85645000D01*
X146919000Y-85645000D01*
X146919000Y-85391000D01*
X146939000Y-85391000D01*
X146939000Y-84291750D01*
X147193000Y-84291750D01*
X147193000Y-85391000D01*
X148971000Y-85391000D01*
X148971000Y-84291750D01*
X149225000Y-84291750D01*
X149225000Y-85391000D01*
X150224250Y-85391000D01*
X150383000Y-85232250D01*
X150383000Y-84917812D01*
X153931417Y-84917812D01*
X154686000Y-85672395D01*
X155440583Y-84917812D01*
X155378929Y-84682200D01*
X154878520Y-84506073D01*
X154348801Y-84534852D01*
X153993071Y-84682200D01*
X153931417Y-84917812D01*
X150383000Y-84917812D01*
X150383000Y-84641691D01*
X150286327Y-84408302D01*
X150107699Y-84229673D01*
X149874310Y-84133000D01*
X149383750Y-84133000D01*
X149225000Y-84291750D01*
X148971000Y-84291750D01*
X148812250Y-84133000D01*
X148321690Y-84133000D01*
X148088301Y-84229673D01*
X148082000Y-84235974D01*
X148075699Y-84229673D01*
X147842310Y-84133000D01*
X147351750Y-84133000D01*
X147193000Y-84291750D01*
X146939000Y-84291750D01*
X146780250Y-84133000D01*
X146289690Y-84133000D01*
X146056301Y-84229673D01*
X145877673Y-84408302D01*
X145872231Y-84421440D01*
X145869090Y-84416559D01*
X145698547Y-84300032D01*
X145714838Y-84260799D01*
X145715162Y-83888833D01*
X145573117Y-83545057D01*
X145310327Y-83281808D01*
X144966799Y-83139162D01*
X144594833Y-83138838D01*
X144251057Y-83280883D01*
X143987808Y-83543673D01*
X143845162Y-83887201D01*
X143844838Y-84259167D01*
X143862409Y-84301693D01*
X143703559Y-84403910D01*
X143683340Y-84433501D01*
X143608090Y-84316559D01*
X143504000Y-84245437D01*
X143504000Y-82320239D01*
X143693778Y-82193433D01*
X144051670Y-81657810D01*
X144177345Y-81026000D01*
X144051670Y-80394190D01*
X143693778Y-79858567D01*
X143158155Y-79500675D01*
X142903395Y-79450000D01*
X154393523Y-79450000D01*
X153931620Y-79640854D01*
G36*
X144750599Y-107217401D02*
X144997161Y-107382148D01*
X145288000Y-107440000D01*
X147513198Y-107440000D01*
X149608000Y-109534802D01*
X149608000Y-111760000D01*
X149665852Y-112050839D01*
X149830599Y-112297401D01*
X151434599Y-113901401D01*
X151681161Y-114066148D01*
X151972000Y-114124000D01*
X152628442Y-114124000D01*
X152670838Y-114349317D01*
X152809910Y-114565441D01*
X152960830Y-114668560D01*
X152908000Y-114668560D01*
X152672683Y-114712838D01*
X152456559Y-114851910D01*
X152311569Y-115064110D01*
X152260560Y-115316000D01*
X152260560Y-117348000D01*
X152304838Y-117583317D01*
X152350321Y-117654000D01*
X149812452Y-117654000D01*
X150043778Y-117499433D01*
X150401670Y-116963810D01*
X150527345Y-116332000D01*
X150401670Y-115700190D01*
X150043778Y-115164567D01*
X149508155Y-114806675D01*
X148876345Y-114681000D01*
X148811655Y-114681000D01*
X148179845Y-114806675D01*
X147877038Y-115009004D01*
X147784090Y-114864559D01*
X147571890Y-114719569D01*
X147320000Y-114668560D01*
X147264847Y-114668560D01*
X147405441Y-114578090D01*
X147550431Y-114365890D01*
X147601440Y-114114000D01*
X147601440Y-112614000D01*
X147557162Y-112378683D01*
X147418090Y-112162559D01*
X147205890Y-112017569D01*
X147172510Y-112010809D01*
X147313699Y-111952327D01*
X147492327Y-111773698D01*
X147589000Y-111540309D01*
X147589000Y-110949750D01*
X147430250Y-110791000D01*
X146431000Y-110791000D01*
X146431000Y-110811000D01*
X146177000Y-110811000D01*
X146177000Y-110791000D01*
X145177750Y-110791000D01*
X145019000Y-110949750D01*
X145019000Y-111540309D01*
X145115673Y-111773698D01*
X145294301Y-111952327D01*
X145430287Y-112008654D01*
X145418683Y-112010838D01*
X145202559Y-112149910D01*
X145057569Y-112362110D01*
X145008585Y-112604000D01*
X144666802Y-112604000D01*
X143502000Y-111439198D01*
X143502000Y-109787691D01*
X145019000Y-109787691D01*
X145019000Y-110378250D01*
X145177750Y-110537000D01*
X146177000Y-110537000D01*
X146177000Y-109437750D01*
X146431000Y-109437750D01*
X146431000Y-110537000D01*
X147430250Y-110537000D01*
X147589000Y-110378250D01*
X147589000Y-109787691D01*
X147492327Y-109554302D01*
X147313699Y-109375673D01*
X147080310Y-109279000D01*
X146589750Y-109279000D01*
X146431000Y-109437750D01*
X146177000Y-109437750D01*
X146018250Y-109279000D01*
X145527690Y-109279000D01*
X145294301Y-109375673D01*
X145115673Y-109554302D01*
X145019000Y-109787691D01*
X143502000Y-109787691D01*
X143502000Y-105968802D01*
X144750599Y-107217401D01*
X144750599Y-107217401D01*
G37*
X144750599Y-107217401D02*
X144997161Y-107382148D01*
X145288000Y-107440000D01*
X147513198Y-107440000D01*
X149608000Y-109534802D01*
X149608000Y-111760000D01*
X149665852Y-112050839D01*
X149830599Y-112297401D01*
X151434599Y-113901401D01*
X151681161Y-114066148D01*
X151972000Y-114124000D01*
X152628442Y-114124000D01*
X152670838Y-114349317D01*
X152809910Y-114565441D01*
X152960830Y-114668560D01*
X152908000Y-114668560D01*
X152672683Y-114712838D01*
X152456559Y-114851910D01*
X152311569Y-115064110D01*
X152260560Y-115316000D01*
X152260560Y-117348000D01*
X152304838Y-117583317D01*
X152350321Y-117654000D01*
X149812452Y-117654000D01*
X150043778Y-117499433D01*
X150401670Y-116963810D01*
X150527345Y-116332000D01*
X150401670Y-115700190D01*
X150043778Y-115164567D01*
X149508155Y-114806675D01*
X148876345Y-114681000D01*
X148811655Y-114681000D01*
X148179845Y-114806675D01*
X147877038Y-115009004D01*
X147784090Y-114864559D01*
X147571890Y-114719569D01*
X147320000Y-114668560D01*
X147264847Y-114668560D01*
X147405441Y-114578090D01*
X147550431Y-114365890D01*
X147601440Y-114114000D01*
X147601440Y-112614000D01*
X147557162Y-112378683D01*
X147418090Y-112162559D01*
X147205890Y-112017569D01*
X147172510Y-112010809D01*
X147313699Y-111952327D01*
X147492327Y-111773698D01*
X147589000Y-111540309D01*
X147589000Y-110949750D01*
X147430250Y-110791000D01*
X146431000Y-110791000D01*
X146431000Y-110811000D01*
X146177000Y-110811000D01*
X146177000Y-110791000D01*
X145177750Y-110791000D01*
X145019000Y-110949750D01*
X145019000Y-111540309D01*
X145115673Y-111773698D01*
X145294301Y-111952327D01*
X145430287Y-112008654D01*
X145418683Y-112010838D01*
X145202559Y-112149910D01*
X145057569Y-112362110D01*
X145008585Y-112604000D01*
X144666802Y-112604000D01*
X143502000Y-111439198D01*
X143502000Y-109787691D01*
X145019000Y-109787691D01*
X145019000Y-110378250D01*
X145177750Y-110537000D01*
X146177000Y-110537000D01*
X146177000Y-109437750D01*
X146431000Y-109437750D01*
X146431000Y-110537000D01*
X147430250Y-110537000D01*
X147589000Y-110378250D01*
X147589000Y-109787691D01*
X147492327Y-109554302D01*
X147313699Y-109375673D01*
X147080310Y-109279000D01*
X146589750Y-109279000D01*
X146431000Y-109437750D01*
X146177000Y-109437750D01*
X146018250Y-109279000D01*
X145527690Y-109279000D01*
X145294301Y-109375673D01*
X145115673Y-109554302D01*
X145019000Y-109787691D01*
X143502000Y-109787691D01*
X143502000Y-105968802D01*
X144750599Y-107217401D01*
G36*
X157482000Y-109026802D02*
X157482000Y-113030000D01*
X157539852Y-113320839D01*
X157704599Y-113567401D01*
X158466599Y-114329401D01*
X158713161Y-114494148D01*
X159004000Y-114552000D01*
X159591352Y-114552000D01*
X159791585Y-114851670D01*
X160106366Y-115062000D01*
X159791585Y-115272330D01*
X159758397Y-115322000D01*
X157768971Y-115322000D01*
X157663778Y-115164567D01*
X157128155Y-114806675D01*
X156496345Y-114681000D01*
X156431655Y-114681000D01*
X155799845Y-114806675D01*
X155497038Y-115009004D01*
X155404090Y-114864559D01*
X155191890Y-114719569D01*
X154940000Y-114668560D01*
X154884847Y-114668560D01*
X155025441Y-114578090D01*
X155170431Y-114365890D01*
X155221440Y-114114000D01*
X155221440Y-112614000D01*
X155177162Y-112378683D01*
X155038090Y-112162559D01*
X154825890Y-112017569D01*
X154792510Y-112010809D01*
X154933699Y-111952327D01*
X155112327Y-111773698D01*
X155209000Y-111540309D01*
X155209000Y-110949750D01*
X155050250Y-110791000D01*
X154051000Y-110791000D01*
X154051000Y-110811000D01*
X153797000Y-110811000D01*
X153797000Y-110791000D01*
X152797750Y-110791000D01*
X152639000Y-110949750D01*
X152639000Y-111540309D01*
X152735673Y-111773698D01*
X152914301Y-111952327D01*
X153050287Y-112008654D01*
X153038683Y-112010838D01*
X152822559Y-112149910D01*
X152677569Y-112362110D01*
X152628585Y-112604000D01*
X152286802Y-112604000D01*
X151128000Y-111445198D01*
X151128000Y-109787691D01*
X152639000Y-109787691D01*
X152639000Y-110378250D01*
X152797750Y-110537000D01*
X153797000Y-110537000D01*
X153797000Y-109437750D01*
X154051000Y-109437750D01*
X154051000Y-110537000D01*
X155050250Y-110537000D01*
X155209000Y-110378250D01*
X155209000Y-109787691D01*
X155112327Y-109554302D01*
X154933699Y-109375673D01*
X154700310Y-109279000D01*
X154209750Y-109279000D01*
X154051000Y-109437750D01*
X153797000Y-109437750D01*
X153638250Y-109279000D01*
X153147690Y-109279000D01*
X152914301Y-109375673D01*
X152735673Y-109554302D01*
X152639000Y-109787691D01*
X151128000Y-109787691D01*
X151128000Y-109220000D01*
X151070148Y-108929161D01*
X151070148Y-108929160D01*
X150905401Y-108682599D01*
X148392802Y-106170000D01*
X154625198Y-106170000D01*
X157482000Y-109026802D01*
X157482000Y-109026802D01*
G37*
X157482000Y-109026802D02*
X157482000Y-113030000D01*
X157539852Y-113320839D01*
X157704599Y-113567401D01*
X158466599Y-114329401D01*
X158713161Y-114494148D01*
X159004000Y-114552000D01*
X159591352Y-114552000D01*
X159791585Y-114851670D01*
X160106366Y-115062000D01*
X159791585Y-115272330D01*
X159758397Y-115322000D01*
X157768971Y-115322000D01*
X157663778Y-115164567D01*
X157128155Y-114806675D01*
X156496345Y-114681000D01*
X156431655Y-114681000D01*
X155799845Y-114806675D01*
X155497038Y-115009004D01*
X155404090Y-114864559D01*
X155191890Y-114719569D01*
X154940000Y-114668560D01*
X154884847Y-114668560D01*
X155025441Y-114578090D01*
X155170431Y-114365890D01*
X155221440Y-114114000D01*
X155221440Y-112614000D01*
X155177162Y-112378683D01*
X155038090Y-112162559D01*
X154825890Y-112017569D01*
X154792510Y-112010809D01*
X154933699Y-111952327D01*
X155112327Y-111773698D01*
X155209000Y-111540309D01*
X155209000Y-110949750D01*
X155050250Y-110791000D01*
X154051000Y-110791000D01*
X154051000Y-110811000D01*
X153797000Y-110811000D01*
X153797000Y-110791000D01*
X152797750Y-110791000D01*
X152639000Y-110949750D01*
X152639000Y-111540309D01*
X152735673Y-111773698D01*
X152914301Y-111952327D01*
X153050287Y-112008654D01*
X153038683Y-112010838D01*
X152822559Y-112149910D01*
X152677569Y-112362110D01*
X152628585Y-112604000D01*
X152286802Y-112604000D01*
X151128000Y-111445198D01*
X151128000Y-109787691D01*
X152639000Y-109787691D01*
X152639000Y-110378250D01*
X152797750Y-110537000D01*
X153797000Y-110537000D01*
X153797000Y-109437750D01*
X154051000Y-109437750D01*
X154051000Y-110537000D01*
X155050250Y-110537000D01*
X155209000Y-110378250D01*
X155209000Y-109787691D01*
X155112327Y-109554302D01*
X154933699Y-109375673D01*
X154700310Y-109279000D01*
X154209750Y-109279000D01*
X154051000Y-109437750D01*
X153797000Y-109437750D01*
X153638250Y-109279000D01*
X153147690Y-109279000D01*
X152914301Y-109375673D01*
X152735673Y-109554302D01*
X152639000Y-109787691D01*
X151128000Y-109787691D01*
X151128000Y-109220000D01*
X151070148Y-108929161D01*
X151070148Y-108929160D01*
X150905401Y-108682599D01*
X148392802Y-106170000D01*
X154625198Y-106170000D01*
X157482000Y-109026802D01*
G36*
X141240838Y-86503317D02*
X141379910Y-86719441D01*
X141592110Y-86864431D01*
X141605197Y-86867081D01*
X141392559Y-87003910D01*
X141247569Y-87216110D01*
X141239000Y-87258425D01*
X141239000Y-86979750D01*
X141080250Y-86821000D01*
X140081000Y-86821000D01*
X140081000Y-87920250D01*
X140239750Y-88079000D01*
X140730310Y-88079000D01*
X140963699Y-87982327D01*
X141142327Y-87803698D01*
X141196560Y-87672768D01*
X141196560Y-88968000D01*
X141240838Y-89203317D01*
X141379910Y-89419441D01*
X141592110Y-89564431D01*
X141844000Y-89615440D01*
X142764432Y-89615440D01*
X142727057Y-89630883D01*
X142463808Y-89893673D01*
X142321162Y-90237201D01*
X142320929Y-90505070D01*
X142054833Y-90504838D01*
X141711057Y-90646883D01*
X141447808Y-90909673D01*
X141305162Y-91253201D01*
X141304838Y-91625167D01*
X141446883Y-91968943D01*
X141709673Y-92232192D01*
X142053201Y-92374838D01*
X142100077Y-92374879D01*
X142161316Y-92436118D01*
X142015559Y-92529910D01*
X141870569Y-92742110D01*
X141819560Y-92994000D01*
X141819560Y-94321560D01*
X140492000Y-94321560D01*
X140256683Y-94365838D01*
X140188509Y-94409707D01*
X139952000Y-94173198D01*
X139952000Y-89662000D01*
X139894148Y-89371161D01*
X139729401Y-89124599D01*
X139190000Y-88585198D01*
X139190000Y-88079000D01*
X139668250Y-88079000D01*
X139827000Y-87920250D01*
X139827000Y-86821000D01*
X139807000Y-86821000D01*
X139807000Y-86567000D01*
X139827000Y-86567000D01*
X139827000Y-86547000D01*
X140081000Y-86547000D01*
X140081000Y-86567000D01*
X141080250Y-86567000D01*
X141225492Y-86421758D01*
X141240838Y-86503317D01*
X141240838Y-86503317D01*
G37*
X141240838Y-86503317D02*
X141379910Y-86719441D01*
X141592110Y-86864431D01*
X141605197Y-86867081D01*
X141392559Y-87003910D01*
X141247569Y-87216110D01*
X141239000Y-87258425D01*
X141239000Y-86979750D01*
X141080250Y-86821000D01*
X140081000Y-86821000D01*
X140081000Y-87920250D01*
X140239750Y-88079000D01*
X140730310Y-88079000D01*
X140963699Y-87982327D01*
X141142327Y-87803698D01*
X141196560Y-87672768D01*
X141196560Y-88968000D01*
X141240838Y-89203317D01*
X141379910Y-89419441D01*
X141592110Y-89564431D01*
X141844000Y-89615440D01*
X142764432Y-89615440D01*
X142727057Y-89630883D01*
X142463808Y-89893673D01*
X142321162Y-90237201D01*
X142320929Y-90505070D01*
X142054833Y-90504838D01*
X141711057Y-90646883D01*
X141447808Y-90909673D01*
X141305162Y-91253201D01*
X141304838Y-91625167D01*
X141446883Y-91968943D01*
X141709673Y-92232192D01*
X142053201Y-92374838D01*
X142100077Y-92374879D01*
X142161316Y-92436118D01*
X142015559Y-92529910D01*
X141870569Y-92742110D01*
X141819560Y-92994000D01*
X141819560Y-94321560D01*
X140492000Y-94321560D01*
X140256683Y-94365838D01*
X140188509Y-94409707D01*
X139952000Y-94173198D01*
X139952000Y-89662000D01*
X139894148Y-89371161D01*
X139729401Y-89124599D01*
X139190000Y-88585198D01*
X139190000Y-88079000D01*
X139668250Y-88079000D01*
X139827000Y-87920250D01*
X139827000Y-86821000D01*
X139807000Y-86821000D01*
X139807000Y-86567000D01*
X139827000Y-86567000D01*
X139827000Y-86547000D01*
X140081000Y-86547000D01*
X140081000Y-86567000D01*
X141080250Y-86567000D01*
X141225492Y-86421758D01*
X141240838Y-86503317D01*
G36*
X138486559Y-79545910D02*
X138341569Y-79758110D01*
X138290560Y-80010000D01*
X138290560Y-82042000D01*
X138334838Y-82277317D01*
X138473910Y-82493441D01*
X138686110Y-82638431D01*
X138938000Y-82689440D01*
X138993153Y-82689440D01*
X138852559Y-82779910D01*
X138707569Y-82992110D01*
X138656560Y-83244000D01*
X138656560Y-84216638D01*
X137892599Y-84980599D01*
X137727852Y-85227161D01*
X137670000Y-85518000D01*
X137670000Y-87827198D01*
X136396000Y-86553198D01*
X136396000Y-85090000D01*
X136338148Y-84799161D01*
X136173401Y-84552599D01*
X135077401Y-83456599D01*
X134830839Y-83291852D01*
X134540000Y-83234000D01*
X134137558Y-83234000D01*
X134095162Y-83008683D01*
X133956090Y-82792559D01*
X133805170Y-82689440D01*
X133858000Y-82689440D01*
X134093317Y-82645162D01*
X134309441Y-82506090D01*
X134416233Y-82349794D01*
X134717845Y-82551325D01*
X135349655Y-82677000D01*
X135414345Y-82677000D01*
X136046155Y-82551325D01*
X136581778Y-82193433D01*
X136939670Y-81657810D01*
X137065345Y-81026000D01*
X136939670Y-80394190D01*
X136581778Y-79858567D01*
X136046155Y-79500675D01*
X135791395Y-79450000D01*
X138635607Y-79450000D01*
X138486559Y-79545910D01*
X138486559Y-79545910D01*
G37*
X138486559Y-79545910D02*
X138341569Y-79758110D01*
X138290560Y-80010000D01*
X138290560Y-82042000D01*
X138334838Y-82277317D01*
X138473910Y-82493441D01*
X138686110Y-82638431D01*
X138938000Y-82689440D01*
X138993153Y-82689440D01*
X138852559Y-82779910D01*
X138707569Y-82992110D01*
X138656560Y-83244000D01*
X138656560Y-84216638D01*
X137892599Y-84980599D01*
X137727852Y-85227161D01*
X137670000Y-85518000D01*
X137670000Y-87827198D01*
X136396000Y-86553198D01*
X136396000Y-85090000D01*
X136338148Y-84799161D01*
X136173401Y-84552599D01*
X135077401Y-83456599D01*
X134830839Y-83291852D01*
X134540000Y-83234000D01*
X134137558Y-83234000D01*
X134095162Y-83008683D01*
X133956090Y-82792559D01*
X133805170Y-82689440D01*
X133858000Y-82689440D01*
X134093317Y-82645162D01*
X134309441Y-82506090D01*
X134416233Y-82349794D01*
X134717845Y-82551325D01*
X135349655Y-82677000D01*
X135414345Y-82677000D01*
X136046155Y-82551325D01*
X136581778Y-82193433D01*
X136939670Y-81657810D01*
X137065345Y-81026000D01*
X136939670Y-80394190D01*
X136581778Y-79858567D01*
X136046155Y-79500675D01*
X135791395Y-79450000D01*
X138635607Y-79450000D01*
X138486559Y-79545910D01*
M02*
