<?xml version="1.0" encoding="UTF-8" standalone="no"?>
<!-- Created with Inkscape (http://www.inkscape.org/) -->

<svg
   xmlns:dc="http://purl.org/dc/elements/1.1/"
   xmlns:cc="http://creativecommons.org/ns#"
   xmlns:rdf="http://www.w3.org/1999/02/22-rdf-syntax-ns#"
   xmlns:svg="http://www.w3.org/2000/svg"
   xmlns="http://www.w3.org/2000/svg"
   xmlns:sodipodi="http://sodipodi.sourceforge.net/DTD/sodipodi-0.dtd"
   xmlns:inkscape="http://www.inkscape.org/namespaces/inkscape"
   id="svg3205"
   version="1.1"
   inkscape:version="0.48.5 r10040"
   width="1620"
   height="1080"
   xml:space="preserve"
   sodipodi:docname="Laser.PDF"><metadata
     id="metadata3211"><rdf:RDF><cc:Work
         rdf:about=""><dc:format>image/svg+xml</dc:format><dc:type
           rdf:resource="http://purl.org/dc/dcmitype/StillImage" /><dc:title></dc:title></cc:Work></rdf:RDF></metadata><defs
     id="defs3209" /><sodipodi:namedview
     pagecolor="#ffffff"
     bordercolor="#666666"
     borderopacity="1"
     objecttolerance="10"
     gridtolerance="10"
     guidetolerance="10"
     inkscape:pageopacity="0"
     inkscape:pageshadow="2"
     inkscape:window-width="640"
     inkscape:window-height="480"
     id="namedview3207"
     showgrid="false"
     inkscape:zoom="0.18148148"
     inkscape:cx="810"
     inkscape:cy="540"
     inkscape:window-x="0"
     inkscape:window-y="0"
     inkscape:window-maximized="0"
     inkscape:current-layer="g3213" /><g
     id="g3213"
     inkscape:groupmode="layer"
     inkscape:label="Laser"
     transform="matrix(1.25,0,0,-1.25,0,1080)"><g
       id="g3215"
       transform="translate(189.0605,748.9092)"><path
         d="M 0,0 212.4,0 M 0,-221.4 0,0 M 212.4,-221.4 0,-221.4 M 212.4,0 l 0,-221.4 m 124.2,119.7 -115.2,0 M 336.6,0 l 0,-101.7 M 221.4,0 336.6,0 M 221.4,-101.7 221.4,0 m 0,-110.7 115.2,0 m -115.2,-110.7 0,110.7 m 115.2,-110.7 -115.2,0 m 115.2,110.7 0,-110.7 m 0,-9 0,-327.6 m 0,0 -336.6,0 m 0,0 0,327.6 m 0,0 336.6,0 m 9,230.4 558,0 m 0,0 0,-558 m -558,0 0,558 m 558,-558 -558,0"
         style="fill:none;stroke:#000000;stroke-opacity:1;stroke-width:0.709;stroke-linecap:round;stroke-linejoin:round;stroke-miterlimit:10;stroke-dasharray:none"
         id="path3217" /></g></g></svg>