<?xml version="1.0" encoding="UTF-8" standalone="no"?>
<!-- Created with Inkscape (http://www.inkscape.org/) -->

<svg
   xmlns:dc="http://purl.org/dc/elements/1.1/"
   xmlns:cc="http://creativecommons.org/ns#"
   xmlns:rdf="http://www.w3.org/1999/02/22-rdf-syntax-ns#"
   xmlns:svg="http://www.w3.org/2000/svg"
   xmlns="http://www.w3.org/2000/svg"
   xmlns:sodipodi="http://sodipodi.sourceforge.net/DTD/sodipodi-0.dtd"
   xmlns:inkscape="http://www.inkscape.org/namespaces/inkscape"
   id="svg3073"
   version="1.1"
   inkscape:version="0.48.5 r10040"
   width="1620"
   height="1080"
   xml:space="preserve"
   sodipodi:docname="Laser2.svg"><metadata
     id="metadata3079"><rdf:RDF><cc:Work
         rdf:about=""><dc:format>image/svg+xml</dc:format><dc:type
           rdf:resource="http://purl.org/dc/dcmitype/StillImage" /><dc:title></dc:title></cc:Work></rdf:RDF></metadata><defs
     id="defs3077" /><sodipodi:namedview
     pagecolor="#ffffff"
     bordercolor="#666666"
     borderopacity="1"
     objecttolerance="10"
     gridtolerance="10"
     guidetolerance="10"
     inkscape:pageopacity="0"
     inkscape:pageshadow="2"
     inkscape:window-width="1600"
     inkscape:window-height="878"
     id="namedview3075"
     showgrid="false"
     inkscape:zoom="0.63981481"
     inkscape:cx="810"
     inkscape:cy="540"
     inkscape:window-x="-8"
     inkscape:window-y="-8"
     inkscape:window-maximized="1"
     inkscape:current-layer="g3081" /><g
     id="g3081"
     inkscape:groupmode="layer"
     inkscape:label="Laser"
     transform="matrix(1.25,0,0,-1.25,0,1080)"><path
       style="fill:none;stroke:#000000;stroke-width:0.70899999;stroke-linecap:round;stroke-linejoin:round;stroke-miterlimit:10;stroke-opacity:1;stroke-dasharray:none"
       d="m 201.0906,799.4951 0,-9"
       id="path3521" /><path
       style="fill:none;stroke:#000000;stroke-width:0.70899999;stroke-linecap:round;stroke-linejoin:round;stroke-miterlimit:10;stroke-opacity:1;stroke-dasharray:none"
       d="m 201.0906,790.4951 180,0"
       id="path3519" /><path
       style="fill:none;stroke:#000000;stroke-width:0.70899999;stroke-linecap:round;stroke-linejoin:round;stroke-miterlimit:10;stroke-opacity:1;stroke-dasharray:none"
       d="m 381.0906,790.4951 0,9"
       id="path3517" /><path
       style="fill:none;stroke:#000000;stroke-width:0.70899999;stroke-linecap:round;stroke-linejoin:round;stroke-miterlimit:10;stroke-opacity:1;stroke-dasharray:none"
       d="m 476.4906,799.4951 0,-9"
       id="path3515" /><path
       style="fill:none;stroke:#000000;stroke-width:0.70899999;stroke-linecap:round;stroke-linejoin:round;stroke-miterlimit:10;stroke-opacity:1;stroke-dasharray:none"
       d="m 476.4906,790.4951 180,0"
       id="path3513" /><path
       style="fill:none;stroke:#000000;stroke-width:0.70899999;stroke-linecap:round;stroke-linejoin:round;stroke-miterlimit:10;stroke-opacity:1;stroke-dasharray:none"
       d="m 656.4906,790.4951 0,9"
       id="path3511" /><path
       style="fill:none;stroke:#000000;stroke-width:0.70899999;stroke-linecap:round;stroke-linejoin:round;stroke-miterlimit:10;stroke-opacity:1;stroke-dasharray:none"
       d="m 751.8906,799.4951 0,-9"
       id="path3509" /><path
       style="fill:none;stroke:#000000;stroke-width:0.70899999;stroke-linecap:round;stroke-linejoin:round;stroke-miterlimit:10;stroke-opacity:1;stroke-dasharray:none"
       d="m 751.8906,790.4951 180,0"
       id="path3507" /><path
       style="fill:none;stroke:#000000;stroke-width:0.70899999;stroke-linecap:round;stroke-linejoin:round;stroke-miterlimit:10;stroke-opacity:1;stroke-dasharray:none"
       d="m 931.8906,790.4951 0,9"
       id="path3505" /><path
       style="fill:none;stroke:#000000;stroke-width:0.70899999;stroke-linecap:round;stroke-linejoin:round;stroke-miterlimit:10;stroke-opacity:1;stroke-dasharray:none"
       d="m 1027.2906,703.4951 -9,0"
       id="path3503" /><path
       style="fill:none;stroke:#000000;stroke-width:0.70899999;stroke-linecap:round;stroke-linejoin:round;stroke-miterlimit:10;stroke-opacity:1;stroke-dasharray:none"
       d="m 1018.2906,703.4951 0,-144"
       id="path3501" /><path
       style="fill:none;stroke:#000000;stroke-width:0.70899999;stroke-linecap:round;stroke-linejoin:round;stroke-miterlimit:10;stroke-opacity:1;stroke-dasharray:none"
       d="m 1018.2906,559.4951 9,0"
       id="path3499" /><path
       style="fill:none;stroke:#000000;stroke-width:0.70899999;stroke-linecap:round;stroke-linejoin:round;stroke-miterlimit:10;stroke-opacity:1;stroke-dasharray:none"
       d="m 1027.2906,463.4951 -9,0"
       id="path3497" /><path
       style="fill:none;stroke:#000000;stroke-width:0.70899999;stroke-linecap:round;stroke-linejoin:round;stroke-miterlimit:10;stroke-opacity:1;stroke-dasharray:none"
       d="m 1018.2906,463.4951 0,-144"
       id="path3495" /><path
       style="fill:none;stroke:#000000;stroke-width:0.70899999;stroke-linecap:round;stroke-linejoin:round;stroke-miterlimit:10;stroke-opacity:1;stroke-dasharray:none"
       d="m 1018.2906,319.4951 9,0"
       id="path3493" /><path
       style="fill:none;stroke:#000000;stroke-width:0.70899999;stroke-linecap:round;stroke-linejoin:round;stroke-miterlimit:10;stroke-opacity:1;stroke-dasharray:none"
       d="m 931.8906,223.4951 0,9"
       id="path3491" /><path
       style="fill:none;stroke:#000000;stroke-width:0.70899999;stroke-linecap:round;stroke-linejoin:round;stroke-miterlimit:10;stroke-opacity:1;stroke-dasharray:none"
       d="m 931.8906,232.4951 -180,0"
       id="path3489" /><path
       style="fill:none;stroke:#000000;stroke-width:0.70899999;stroke-linecap:round;stroke-linejoin:round;stroke-miterlimit:10;stroke-opacity:1;stroke-dasharray:none"
       d="m 751.8906,232.4951 0,-9"
       id="path3487" /><path
       style="fill:none;stroke:#000000;stroke-width:0.70899999;stroke-linecap:round;stroke-linejoin:round;stroke-miterlimit:10;stroke-opacity:1;stroke-dasharray:none"
       d="m 656.4906,223.4951 0,9"
       id="path3485" /><path
       style="fill:none;stroke:#000000;stroke-width:0.70899999;stroke-linecap:round;stroke-linejoin:round;stroke-miterlimit:10;stroke-opacity:1;stroke-dasharray:none"
       d="m 656.4906,232.4951 -180,0"
       id="path3483" /><path
       style="fill:none;stroke:#000000;stroke-width:0.70899999;stroke-linecap:round;stroke-linejoin:round;stroke-miterlimit:10;stroke-opacity:1;stroke-dasharray:none"
       d="m 476.4906,232.4951 0,-9"
       id="path3481" /><path
       style="fill:none;stroke:#000000;stroke-width:0.70899999;stroke-linecap:round;stroke-linejoin:round;stroke-miterlimit:10;stroke-opacity:1;stroke-dasharray:none"
       d="m 381.0906,223.4951 0,9"
       id="path3479" /><path
       style="fill:none;stroke:#000000;stroke-width:0.70899999;stroke-linecap:round;stroke-linejoin:round;stroke-miterlimit:10;stroke-opacity:1;stroke-dasharray:none"
       d="m 381.0906,232.4951 -180,0"
       id="path3477" /><path
       style="fill:none;stroke:#000000;stroke-width:0.70899999;stroke-linecap:round;stroke-linejoin:round;stroke-miterlimit:10;stroke-opacity:1;stroke-dasharray:none"
       d="m 201.0906,232.4951 0,-9"
       id="path3475" /><path
       style="fill:none;stroke:#000000;stroke-width:0.70899999;stroke-linecap:round;stroke-linejoin:round;stroke-miterlimit:10;stroke-opacity:1;stroke-dasharray:none"
       d="m 105.6906,319.4951 9,0"
       id="path3473" /><path
       style="fill:none;stroke:#000000;stroke-width:0.70899999;stroke-linecap:round;stroke-linejoin:round;stroke-miterlimit:10;stroke-opacity:1;stroke-dasharray:none"
       d="m 114.6906,319.4951 0,144"
       id="path3471" /><path
       style="fill:none;stroke:#000000;stroke-width:0.70899999;stroke-linecap:round;stroke-linejoin:round;stroke-miterlimit:10;stroke-opacity:1;stroke-dasharray:none"
       d="m 114.6906,463.4951 -9,0"
       id="path3469" /><path
       style="fill:none;stroke:#000000;stroke-width:0.70899999;stroke-linecap:round;stroke-linejoin:round;stroke-miterlimit:10;stroke-opacity:1;stroke-dasharray:none"
       d="m 105.6906,559.4951 9,0"
       id="path3467" /><path
       style="fill:none;stroke:#000000;stroke-width:0.70899999;stroke-linecap:round;stroke-linejoin:round;stroke-miterlimit:10;stroke-opacity:1;stroke-dasharray:none"
       d="m 114.6906,559.4951 0,144"
       id="path3465" /><path
       style="fill:none;stroke:#000000;stroke-width:0.70899999;stroke-linecap:round;stroke-linejoin:round;stroke-miterlimit:10;stroke-opacity:1;stroke-dasharray:none"
       d="m 114.6906,703.4951 -9,0"
       id="path3463" /><path
       style="fill:none;stroke:#ff0000;stroke-width:0.70899999000000002;stroke-linecap:round;stroke-linejoin:round;stroke-miterlimit:10;stroke-opacity:1;stroke-dasharray:none"
       d="m 678.3516,484.4951 0.382,3.269 1.126,3.092 1.808,2.749 2.394,2.259 2.85,1.645 3.152,0.944 3.286,0.191 3.241,-0.571 3.021,-1.304 2.64,-1.965 2.115,-2.521 1.477,-2.94 0.759,-3.203 0,-3.29 -0.759,-3.203 -1.477,-2.94 -2.115,-2.521 -2.64,-1.965 -3.021,-1.304 -3.241,-0.571 -3.286,0.191 -3.152,0.944 -2.85,1.645 -2.394,2.259 -1.808,2.749 -1.126,3.092 -0.382,3.269"
       id="path3461" /><path
       style="fill:none;stroke:#ff0000;stroke-width:0.70899999000000002;stroke-linecap:round;stroke-linejoin:round;stroke-miterlimit:10;stroke-opacity:1;stroke-dasharray:none"
       d="m 771.8826,484.4951 0.382,3.269 1.126,3.092 1.808,2.749 2.394,2.259 2.85,1.645 3.152,0.944 3.285,0.191 3.241,-0.571 3.022,-1.304 2.64,-1.965 2.115,-2.521 1.477,-2.94 0.759,-3.203 0,-3.29 -0.759,-3.203 -1.477,-2.94 -2.115,-2.521 -2.64,-1.965 -3.022,-1.304 -3.241,-0.571 -3.285,0.191 -3.152,0.944 -2.85,1.645 -2.394,2.259 -1.808,2.749 -1.126,3.092 -0.382,3.269"
       id="path3459" /><path
       style="fill:none;stroke:#ff0000;stroke-width:0.70899999000000002;stroke-linecap:round;stroke-linejoin:round;stroke-miterlimit:10;stroke-opacity:1;stroke-dasharray:none"
       d="m 725.1176,565.4951 0.382,3.269 1.125,3.092 1.809,2.749 2.393,2.259 2.85,1.645 3.153,0.944 3.285,0.191 3.241,-0.571 3.022,-1.304 2.639,-1.965 2.116,-2.521 1.476,-2.94 0.759,-3.203 0,-3.29 -0.759,-3.203 -1.476,-2.94 -2.116,-2.521 -2.639,-1.965 -3.022,-1.304 -3.241,-0.571 -3.285,0.191 -3.153,0.944 -2.85,1.645 -2.393,2.259 -1.809,2.749 -1.125,3.092 -0.382,3.269"
       id="path3457" /><path
       style="fill:none;stroke:#ff0000;stroke-width:0.70899999000000002;stroke-linecap:round;stroke-linejoin:round;stroke-miterlimit:10;stroke-opacity:1;stroke-dasharray:none"
       d="m 554.1176,682.4951 0.382,3.269 1.125,3.092 1.809,2.749 2.393,2.259 2.85,1.645 3.153,0.944 3.285,0.191 3.241,-0.571 3.022,-1.304 2.639,-1.965 2.116,-2.521 1.476,-2.94 0.759,-3.203 0,-3.29 -0.759,-3.203 -1.476,-2.94 -2.116,-2.521 -2.639,-1.965 -3.022,-1.304 -3.241,-0.571 -3.285,0.191 -3.153,0.944 -2.85,1.645 -2.393,2.259 -1.809,2.749 -1.125,3.092 -0.382,3.269"
       id="path3455" /><path
       style="fill:none;stroke:#ff0000;stroke-width:0.70899999000000002;stroke-linecap:round;stroke-linejoin:round;stroke-miterlimit:10;stroke-opacity:1;stroke-dasharray:none"
       d="m 896.1176,340.4951 0.382,3.269 1.125,3.092 1.809,2.749 2.393,2.259 2.85,1.645 3.153,0.944 3.285,0.191 3.241,-0.571 3.022,-1.304 2.639,-1.965 2.116,-2.521 1.476,-2.94 0.759,-3.203 0,-3.29 -0.759,-3.203 -1.476,-2.94 -2.116,-2.521 -2.639,-1.965 -3.022,-1.304 -3.241,-0.571 -3.285,0.191 -3.153,0.944 -2.85,1.645 -2.393,2.259 -1.809,2.749 -1.125,3.092 -0.382,3.269"
       id="path3453" /><path
       style="fill:none;stroke:#ff0000;stroke-width:0.70899999000000002;stroke-linecap:round;stroke-linejoin:round;stroke-miterlimit:10;stroke-opacity:1;stroke-dasharray:none"
       d="m 554.1176,340.4951 0.382,3.269 1.125,3.092 1.809,2.749 2.393,2.259 2.85,1.645 3.153,0.944 3.285,0.191 3.241,-0.571 3.022,-1.304 2.639,-1.965 2.116,-2.521 1.476,-2.94 0.759,-3.203 0,-3.29 -0.759,-3.203 -1.476,-2.94 -2.116,-2.521 -2.639,-1.965 -3.022,-1.304 -3.241,-0.571 -3.285,0.191 -3.153,0.944 -2.85,1.645 -2.393,2.259 -1.809,2.749 -1.125,3.092 -0.382,3.269"
       id="path3451" /><path
       style="fill:none;stroke:#ff0000;stroke-width:0.70899999000000002;stroke-linecap:round;stroke-linejoin:round;stroke-miterlimit:10;stroke-opacity:1;stroke-dasharray:none"
       d="m 896.1176,682.4951 0.382,3.269 1.125,3.092 1.809,2.749 2.393,2.259 2.85,1.645 3.153,0.944 3.285,0.191 3.241,-0.571 3.022,-1.304 2.639,-1.965 2.116,-2.521 1.476,-2.94 0.759,-3.203 0,-3.29 -0.759,-3.203 -1.476,-2.94 -2.116,-2.521 -2.639,-1.965 -3.022,-1.304 -3.241,-0.571 -3.285,0.191 -3.153,0.944 -2.85,1.645 -2.393,2.259 -1.809,2.749 -1.125,3.092 -0.382,3.269"
       id="path3449" /><path
       style="fill:none;stroke:#ff0000;stroke-width:0.70899999000000002;stroke-linecap:round;stroke-linejoin:round;stroke-miterlimit:10;stroke-opacity:1;stroke-dasharray:none"
       d="m 184.6676,480.4451 0.382,3.269 1.125,3.092 1.809,2.749 2.393,2.259 2.85,1.645 3.153,0.944 3.285,0.191 3.241,-0.571 3.022,-1.304 2.639,-1.965 2.116,-2.521 1.476,-2.94 0.759,-3.203 0,-3.29 -0.759,-3.203 -1.476,-2.94 -2.116,-2.521 -2.639,-1.965 -3.022,-1.304 -3.241,-0.571 -3.285,0.191 -3.153,0.944 -2.85,1.645 -2.393,2.259 -1.809,2.749 -1.125,3.092 -0.382,3.269"
       id="path3447" /><path
       style="fill:none;stroke:#ff0000;stroke-width:0.70899999000000002;stroke-linecap:round;stroke-linejoin:round;stroke-miterlimit:10;stroke-opacity:1;stroke-dasharray:none"
       d="m 352.9676,312.1451 0.382,3.269 1.125,3.092 1.809,2.749 2.393,2.259 2.85,1.645 3.153,0.944 3.285,0.191 3.241,-0.571 3.022,-1.304 2.639,-1.965 2.116,-2.521 1.476,-2.94 0.759,-3.203 0,-3.29 -0.759,-3.203 -1.476,-2.94 -2.116,-2.521 -2.639,-1.965 -3.022,-1.304 -3.241,-0.571 -3.285,0.191 -3.153,0.944 -2.85,1.645 -2.393,2.259 -1.809,2.749 -1.125,3.092 -0.382,3.269"
       id="path3445" /><path
       style="fill:none;stroke:#ff0000;stroke-width:0.70899999000000002;stroke-linecap:round;stroke-linejoin:round;stroke-miterlimit:10;stroke-opacity:1;stroke-dasharray:none"
       d="m 184.6676,312.1451 0.382,3.269 1.125,3.092 1.809,2.749 2.393,2.259 2.85,1.645 3.153,0.944 3.285,0.191 3.241,-0.571 3.022,-1.304 2.639,-1.965 2.116,-2.521 1.476,-2.94 0.759,-3.203 0,-3.29 -0.759,-3.203 -1.476,-2.94 -2.116,-2.521 -2.639,-1.965 -3.022,-1.304 -3.241,-0.571 -3.285,0.191 -3.153,0.944 -2.85,1.645 -2.393,2.259 -1.809,2.749 -1.125,3.092 -0.382,3.269"
       id="path3443" /><path
       style="fill:none;stroke:#ff0000;stroke-width:0.70899999000000002;stroke-linecap:round;stroke-linejoin:round;stroke-miterlimit:10;stroke-opacity:1;stroke-dasharray:none"
       d="m 352.9676,480.4451 0.382,3.269 1.125,3.092 1.809,2.749 2.393,2.259 2.85,1.645 3.153,0.944 3.285,0.191 3.241,-0.571 3.022,-1.304 2.639,-1.965 2.116,-2.521 1.476,-2.94 0.759,-3.203 0,-3.29 -0.759,-3.203 -1.476,-2.94 -2.116,-2.521 -2.639,-1.965 -3.022,-1.304 -3.241,-0.571 -3.285,0.191 -3.153,0.944 -2.85,1.645 -2.393,2.259 -1.809,2.749 -1.125,3.092 -0.382,3.269"
       id="path3441" /><path
       style="fill:none;stroke:#ff0000;stroke-width:0.70899999000000002;stroke-linecap:round;stroke-linejoin:round;stroke-miterlimit:10;stroke-opacity:1;stroke-dasharray:none"
       d="m 150.6416,621.3441 0.383,3.268 1.125,3.093 1.808,2.749 2.394,2.258 2.85,1.646 3.153,0.944 3.285,0.191 3.241,-0.572 3.021,-1.303 2.64,-1.965 2.115,-2.521 1.477,-2.941 0.759,-3.202 0,-3.291 -0.759,-3.202 -1.477,-2.941 -2.115,-2.521 -2.64,-1.965 -3.021,-1.303 -3.241,-0.572 -3.285,0.192 -3.153,0.944 -2.85,1.645 -2.394,2.258 -1.808,2.75 -1.125,3.092 -0.383,3.269"
       id="path3439" /><path
       style="fill:none;stroke:#ff0000;stroke-width:0.70899999000000002;stroke-linecap:round;stroke-linejoin:round;stroke-miterlimit:10;stroke-opacity:1;stroke-dasharray:none"
       d="m 262.7926,738.2461 0.382,3.269 1.126,3.092 1.808,2.75 2.394,2.258 2.85,1.645 3.152,0.944 3.285,0.192 3.241,-0.572 3.022,-1.303 2.64,-1.965 2.115,-2.521 1.477,-2.941 0.759,-3.202 0,-3.291 -0.759,-3.202 -1.477,-2.941 -2.115,-2.521 -2.64,-1.965 -3.022,-1.303 -3.241,-0.572 -3.285,0.191 -3.152,0.944 -2.85,1.646 -2.394,2.258 -1.808,2.749 -1.126,3.093 -0.382,3.268"
       id="path3437" /><path
       style="fill:none;stroke:#ff0000;stroke-width:0.70899999000000002;stroke-linecap:round;stroke-linejoin:round;stroke-miterlimit:10;stroke-opacity:1;stroke-dasharray:none"
       d="m 379.5176,624.4451 0.382,3.269 1.125,3.092 1.809,2.749 2.393,2.259 2.85,1.645 3.153,0.944 3.285,0.191 3.241,-0.571 3.022,-1.304 2.639,-1.965 2.116,-2.521 1.476,-2.941 0.759,-3.202 0,-3.29 -0.759,-3.203 -1.476,-2.94 -2.116,-2.521 -2.639,-1.965 -3.022,-1.304 -3.241,-0.571 -3.285,0.191 -3.153,0.944 -2.85,1.645 -2.393,2.259 -1.809,2.749 -1.125,3.092 -0.382,3.269"
       id="path3435" /><path
       style="fill:none;stroke:#ff0000;stroke-width:0.70899999000000002;stroke-linecap:round;stroke-linejoin:round;stroke-miterlimit:10;stroke-opacity:1;stroke-dasharray:none"
       d="m 379.5176,739.6451 0.382,3.269 1.125,3.092 1.809,2.749 2.393,2.259 2.85,1.645 3.153,0.944 3.285,0.191 3.241,-0.571 3.022,-1.304 2.639,-1.965 2.116,-2.521 1.476,-2.94 0.759,-3.203 0,-3.29 -0.759,-3.203 -1.476,-2.94 -2.116,-2.521 -2.639,-1.965 -3.022,-1.304 -3.241,-0.571 -3.285,0.191 -3.153,0.944 -2.85,1.645 -2.393,2.259 -1.809,2.749 -1.125,3.092 -0.382,3.269"
       id="path3433" /><path
       style="fill:none;stroke:#000000;stroke-width:0.70899999;stroke-linecap:round;stroke-linejoin:round;stroke-miterlimit:10;stroke-opacity:1;stroke-dasharray:none"
       d="m 1027.2906,799.4951 -95.4,0"
       id="path3431" /><path
       style="fill:none;stroke:#000000;stroke-width:0.70899999;stroke-linecap:round;stroke-linejoin:round;stroke-miterlimit:10;stroke-opacity:1;stroke-dasharray:none"
       d="m 1027.2906,703.4951 0,96"
       id="path3429" /><path
       style="fill:none;stroke:#000000;stroke-width:0.70899999;stroke-linecap:round;stroke-linejoin:round;stroke-miterlimit:10;stroke-opacity:1;stroke-dasharray:none"
       d="m 105.6906,223.4951 95.4,0"
       id="path3427" /><path
       style="fill:none;stroke:#000000;stroke-width:0.70899999;stroke-linecap:round;stroke-linejoin:round;stroke-miterlimit:10;stroke-opacity:1;stroke-dasharray:none"
       d="m 105.6906,319.4951 0,-96"
       id="path3425" /><path
       style="fill:none;stroke:#000000;stroke-width:0.70899999;stroke-linecap:round;stroke-linejoin:round;stroke-miterlimit:10;stroke-opacity:1;stroke-dasharray:none"
       d="m 201.0906,799.4951 -95.4,0"
       id="path3423" /><path
       style="fill:none;stroke:#000000;stroke-width:0.70899999;stroke-linecap:round;stroke-linejoin:round;stroke-miterlimit:10;stroke-opacity:1;stroke-dasharray:none"
       d="m 476.4906,799.4951 -95.4,0"
       id="path3421" /><path
       style="fill:none;stroke:#000000;stroke-width:0.70899999;stroke-linecap:round;stroke-linejoin:round;stroke-miterlimit:10;stroke-opacity:1;stroke-dasharray:none"
       d="m 751.8906,799.4951 -95.4,0"
       id="path3419" /><path
       style="fill:none;stroke:#000000;stroke-width:0.70899999;stroke-linecap:round;stroke-linejoin:round;stroke-miterlimit:10;stroke-opacity:1;stroke-dasharray:none"
       d="m 1027.2906,463.4951 0,96"
       id="path3417" /><path
       style="fill:none;stroke:#000000;stroke-width:0.70899999;stroke-linecap:round;stroke-linejoin:round;stroke-miterlimit:10;stroke-opacity:1;stroke-dasharray:none"
       d="m 1027.2906,223.4951 0,96"
       id="path3415" /><path
       style="fill:none;stroke:#000000;stroke-width:0.70899999;stroke-linecap:round;stroke-linejoin:round;stroke-miterlimit:10;stroke-opacity:1;stroke-dasharray:none"
       d="m 931.8906,223.4951 95.4,0"
       id="path3413" /><path
       style="fill:none;stroke:#000000;stroke-width:0.70899999;stroke-linecap:round;stroke-linejoin:round;stroke-miterlimit:10;stroke-opacity:1;stroke-dasharray:none"
       d="m 656.4906,223.4951 95.4,0"
       id="path3411" /><path
       style="fill:none;stroke:#000000;stroke-width:0.70899999;stroke-linecap:round;stroke-linejoin:round;stroke-miterlimit:10;stroke-opacity:1;stroke-dasharray:none"
       d="m 381.0906,223.4951 95.4,0"
       id="path3409" /><path
       style="fill:none;stroke:#000000;stroke-width:0.70899999;stroke-linecap:round;stroke-linejoin:round;stroke-miterlimit:10;stroke-opacity:1;stroke-dasharray:none"
       d="m 105.6906,559.4951 0,-96"
       id="path3407" /><path
       style="fill:none;stroke:#000000;stroke-width:0.70899999;stroke-linecap:round;stroke-linejoin:round;stroke-miterlimit:10;stroke-opacity:1;stroke-dasharray:none"
       d="m 105.6906,799.4951 0,-96"
       id="path3085" /><g
       id="g3087"
       transform="translate(538.5246,212.1154)"><path
         d="M 0,0 0,-97.2 M -135,0 l 0,-97.2 m 0,0 135,0 M -135,0 0,0"
         style="fill:none;stroke:#000000;stroke-opacity:1;stroke-width:0.709;stroke-linecap:round;stroke-linejoin:round;stroke-miterlimit:10;stroke-dasharray:none"
         id="path3089" /></g><g
       id="g3091"
       transform="translate(255.0379,215.4122)"><path
         d="M 0,0 0,-110.7 M 135,0 0,0 m 135,0 0,-110.7 m 0,0 -135,0"
         style="fill:none;stroke:#000000;stroke-opacity:1;stroke-width:0.709;stroke-linecap:round;stroke-linejoin:round;stroke-miterlimit:10;stroke-dasharray:none"
         id="path3093" /></g><g
       id="g3095"
       transform="translate(106.5512,104.7122)"><path
         d="m 0,0 0,110.7 m 135,0 -135,0 M 0,0 135,0 m 0,0 0,110.7"
         style="fill:none;stroke:#000000;stroke-opacity:1;stroke-width:0.709;stroke-linecap:round;stroke-linejoin:round;stroke-miterlimit:10;stroke-dasharray:none"
         id="path3097" /></g><g
       id="g3099"
       transform="translate(550.1922,215.476)"><path
         d="M 0,0 97.2,0 M 0,-135 l 97.2,0 M 0,0 0,-135 m 97.2,0 0,135"
         style="fill:none;stroke:#000000;stroke-opacity:1;stroke-width:0.709;stroke-linecap:round;stroke-linejoin:round;stroke-miterlimit:10;stroke-dasharray:none"
         id="path3101" /></g><g
       id="g3103"
       transform="translate(757.8939,78.7495)"><path
         d="M 0,0 -97.2,0 M 0,135 l -97.2,0 m 0,0 0,-135 M 0,135 0,0"
         style="fill:none;stroke:#000000;stroke-opacity:1;stroke-width:0.709;stroke-linecap:round;stroke-linejoin:round;stroke-miterlimit:10;stroke-dasharray:none"
         id="path3105" /></g><g
       id="g3107"
       transform="translate(1170.4563,797.3719)"><path
         d="M 0,0 -135,0 M 0,-221.4 0,0 m 0,-221.4 -135,0 m 0,0 0,221.4"
         style="fill:none;stroke:#000000;stroke-opacity:1;stroke-width:0.709;stroke-linecap:round;stroke-linejoin:round;stroke-miterlimit:10;stroke-dasharray:none"
         id="path3109" /></g><g
       id="g3111"
       transform="translate(1173.9094,330.7962)"><path
         d="M 0,0 0,221.4 M 0,0 -135,0 m 0,0 0,221.4 m 135,0 -135,0"
         style="fill:none;stroke:#000000;stroke-opacity:1;stroke-width:0.709;stroke-linecap:round;stroke-linejoin:round;stroke-miterlimit:10;stroke-dasharray:none"
         id="path3113" /></g><g
       id="g3115"
       transform="translate(972.2465,77.0229)"><path
         d="M 0,0 0,135 M -194.4,0 0,0 M -194.4,135 0,135 m -194.4,0 0,-135"
         style="fill:none;stroke:#000000;stroke-opacity:1;stroke-width:0.709;stroke-linecap:round;stroke-linejoin:round;stroke-miterlimit:10;stroke-dasharray:none"
         id="path3117" /></g><g
       id="g3119"
       transform="translate(1182.8904,215.476)"><path
         d="m 0,0 0,-135 m -194.4,0 194.4,0 M -194.4,0 0,0 m -194.4,0 0,-135"
         style="fill:none;stroke:#000000;stroke-opacity:1;stroke-width:0.709;stroke-linecap:round;stroke-linejoin:round;stroke-miterlimit:10;stroke-dasharray:none"
         id="path3121" /></g></g></svg>